ISO-10303-21;
HEADER;
/* Generated by software containing ST-Developer
 * from STEP Tools, Inc. (www.steptools.com) 
 */

FILE_DESCRIPTION(
/* description */ ('',
'CAx-IF Rec.Pracs.---Representation and Presentation of Product Manufa
cturing Information (PMI)---4.0---2014-10-13'),
/* implementation_level */ '2;1');

FILE_NAME(
/* name */ 'body.step',
/* time_stamp */ '2025-03-30T12:17:46+02:00',
/* author */ (''),
/* organization */ (''),
/* preprocessor_version */ 'ST-DEVELOPER v20',
/* originating_system */ 'Autodesk Translation Framework v13.20.0.188',

/* authorisation */ '');

FILE_SCHEMA (('CONFIG_CONTROL_DESIGN','INTEGRATED_CNC_SCHEMA','AP242_MANAGED_MODEL_BASED_3D_ENGINEERING_MIM_LF { 1 0 10303 442 1 1 4 }'));
ENDSEC;

DATA;
#10=MECHANICAL_DESIGN_GEOMETRIC_PRESENTATION_REPRESENTATION('',(#13),#257);
#11=SHAPE_REPRESENTATION_RELATIONSHIP('SRR','None',#264,#12);
#12=ADVANCED_BREP_SHAPE_REPRESENTATION('',(#14),#256);
#13=STYLED_ITEM('',(#273),#14);
#14=MANIFOLD_SOLID_BREP('Bry\X2\0142\X0\a1',#141);
#15=CYLINDRICAL_SURFACE('',#164,50.);
#16=CYLINDRICAL_SURFACE('',#167,50.);
#17=LINE('',#227,#27);
#18=LINE('',#232,#28);
#19=LINE('',#235,#29);
#20=LINE('',#237,#30);
#21=LINE('',#238,#31);
#22=LINE('',#242,#32);
#23=LINE('',#243,#33);
#24=LINE('',#246,#34);
#25=LINE('',#247,#35);
#26=LINE('',#251,#36);
#27=VECTOR('',#185,10.);
#28=VECTOR('',#190,10.);
#29=VECTOR('',#193,10.);
#30=VECTOR('',#194,10.);
#31=VECTOR('',#195,10.);
#32=VECTOR('',#200,10.);
#33=VECTOR('',#201,50.);
#34=VECTOR('',#204,10.);
#35=VECTOR('',#205,10.);
#36=VECTOR('',#210,50.);
#37=FACE_OUTER_BOUND('',#45,.T.);
#38=FACE_OUTER_BOUND('',#46,.T.);
#39=FACE_OUTER_BOUND('',#47,.T.);
#40=FACE_OUTER_BOUND('',#48,.T.);
#41=FACE_OUTER_BOUND('',#49,.T.);
#42=FACE_OUTER_BOUND('',#50,.T.);
#43=FACE_OUTER_BOUND('',#51,.T.);
#44=FACE_OUTER_BOUND('',#52,.T.);
#45=EDGE_LOOP('',(#91));
#46=EDGE_LOOP('',(#92));
#47=EDGE_LOOP('',(#93,#94,#95,#96,#97));
#48=EDGE_LOOP('',(#98,#99,#100,#101));
#49=EDGE_LOOP('',(#102,#103,#104,#105,#106,#107,#108,#109));
#50=EDGE_LOOP('',(#110,#111,#112,#113));
#51=EDGE_LOOP('',(#114,#115,#116,#117,#118,#119,#120,#121));
#52=EDGE_LOOP('',(#122,#123,#124,#125,#126));
#53=CIRCLE('',#156,50.);
#54=CIRCLE('',#158,50.);
#55=CIRCLE('',#160,50.);
#56=CIRCLE('',#161,50.);
#57=CIRCLE('',#162,50.);
#58=CIRCLE('',#165,50.);
#59=CIRCLE('',#168,50.);
#60=CIRCLE('',#169,50.);
#61=VERTEX_POINT('',#217);
#62=VERTEX_POINT('',#220);
#63=VERTEX_POINT('',#223);
#64=VERTEX_POINT('',#224);
#65=VERTEX_POINT('',#226);
#66=VERTEX_POINT('',#228);
#67=VERTEX_POINT('',#230);
#68=VERTEX_POINT('',#234);
#69=VERTEX_POINT('',#236);
#70=VERTEX_POINT('',#240);
#71=VERTEX_POINT('',#245);
#72=VERTEX_POINT('',#249);
#73=EDGE_CURVE('',#61,#61,#53,.T.);
#74=EDGE_CURVE('',#62,#62,#54,.T.);
#75=EDGE_CURVE('',#63,#64,#55,.T.);
#76=EDGE_CURVE('',#64,#65,#17,.T.);
#77=EDGE_CURVE('',#65,#66,#56,.T.);
#78=EDGE_CURVE('',#66,#67,#57,.T.);
#79=EDGE_CURVE('',#67,#63,#18,.T.);
#80=EDGE_CURVE('',#64,#68,#19,.T.);
#81=EDGE_CURVE('',#69,#68,#20,.T.);
#82=EDGE_CURVE('',#65,#69,#21,.T.);
#83=EDGE_CURVE('',#70,#69,#58,.T.);
#84=EDGE_CURVE('',#67,#70,#22,.T.);
#85=EDGE_CURVE('',#66,#62,#23,.T.);
#86=EDGE_CURVE('',#71,#70,#24,.T.);
#87=EDGE_CURVE('',#63,#71,#25,.T.);
#88=EDGE_CURVE('',#72,#71,#59,.T.);
#89=EDGE_CURVE('',#72,#61,#26,.T.);
#90=EDGE_CURVE('',#68,#72,#60,.T.);
#91=ORIENTED_EDGE('',*,*,#73,.T.);
#92=ORIENTED_EDGE('',*,*,#74,.T.);
#93=ORIENTED_EDGE('',*,*,#75,.T.);
#94=ORIENTED_EDGE('',*,*,#76,.T.);
#95=ORIENTED_EDGE('',*,*,#77,.T.);
#96=ORIENTED_EDGE('',*,*,#78,.T.);
#97=ORIENTED_EDGE('',*,*,#79,.T.);
#98=ORIENTED_EDGE('',*,*,#76,.F.);
#99=ORIENTED_EDGE('',*,*,#80,.T.);
#100=ORIENTED_EDGE('',*,*,#81,.F.);
#101=ORIENTED_EDGE('',*,*,#82,.F.);
#102=ORIENTED_EDGE('',*,*,#82,.T.);
#103=ORIENTED_EDGE('',*,*,#83,.F.);
#104=ORIENTED_EDGE('',*,*,#84,.F.);
#105=ORIENTED_EDGE('',*,*,#78,.F.);
#106=ORIENTED_EDGE('',*,*,#85,.T.);
#107=ORIENTED_EDGE('',*,*,#74,.F.);
#108=ORIENTED_EDGE('',*,*,#85,.F.);
#109=ORIENTED_EDGE('',*,*,#77,.F.);
#110=ORIENTED_EDGE('',*,*,#79,.F.);
#111=ORIENTED_EDGE('',*,*,#84,.T.);
#112=ORIENTED_EDGE('',*,*,#86,.F.);
#113=ORIENTED_EDGE('',*,*,#87,.F.);
#114=ORIENTED_EDGE('',*,*,#75,.F.);
#115=ORIENTED_EDGE('',*,*,#87,.T.);
#116=ORIENTED_EDGE('',*,*,#88,.F.);
#117=ORIENTED_EDGE('',*,*,#89,.T.);
#118=ORIENTED_EDGE('',*,*,#73,.F.);
#119=ORIENTED_EDGE('',*,*,#89,.F.);
#120=ORIENTED_EDGE('',*,*,#90,.F.);
#121=ORIENTED_EDGE('',*,*,#80,.F.);
#122=ORIENTED_EDGE('',*,*,#90,.T.);
#123=ORIENTED_EDGE('',*,*,#88,.T.);
#124=ORIENTED_EDGE('',*,*,#86,.T.);
#125=ORIENTED_EDGE('',*,*,#83,.T.);
#126=ORIENTED_EDGE('',*,*,#81,.T.);
#127=PLANE('',#155);
#128=PLANE('',#157);
#129=PLANE('',#159);
#130=PLANE('',#163);
#131=PLANE('',#166);
#132=PLANE('',#170);
#133=ADVANCED_FACE('',(#37),#127,.F.);
#134=ADVANCED_FACE('',(#38),#128,.F.);
#135=ADVANCED_FACE('',(#39),#129,.F.);
#136=ADVANCED_FACE('',(#40),#130,.T.);
#137=ADVANCED_FACE('',(#41),#15,.T.);
#138=ADVANCED_FACE('',(#42),#131,.T.);
#139=ADVANCED_FACE('',(#43),#16,.T.);
#140=ADVANCED_FACE('',(#44),#132,.T.);
#141=CLOSED_SHELL('',(#133,#134,#135,#136,#137,#138,#139,#140));
#142=DERIVED_UNIT_ELEMENT(#144,1.);
#143=DERIVED_UNIT_ELEMENT(#259,-3.);
#144=(
MASS_UNIT()
NAMED_UNIT(*)
SI_UNIT(.KILO.,.GRAM.)
);
#145=DERIVED_UNIT((#142,#143));
#146=MEASURE_REPRESENTATION_ITEM('density measure',
POSITIVE_RATIO_MEASURE(7850.),#145);
#147=PROPERTY_DEFINITION_REPRESENTATION(#152,#149);
#148=PROPERTY_DEFINITION_REPRESENTATION(#153,#150);
#149=REPRESENTATION('material name',(#151),#256);
#150=REPRESENTATION('density',(#146),#256);
#151=DESCRIPTIVE_REPRESENTATION_ITEM('Stal','Stal');
#152=PROPERTY_DEFINITION('material property','material name',#266);
#153=PROPERTY_DEFINITION('material property','density of part',#266);
#154=AXIS2_PLACEMENT_3D('',#215,#171,#172);
#155=AXIS2_PLACEMENT_3D('',#216,#173,#174);
#156=AXIS2_PLACEMENT_3D('',#218,#175,#176);
#157=AXIS2_PLACEMENT_3D('',#219,#177,#178);
#158=AXIS2_PLACEMENT_3D('',#221,#179,#180);
#159=AXIS2_PLACEMENT_3D('',#222,#181,#182);
#160=AXIS2_PLACEMENT_3D('',#225,#183,#184);
#161=AXIS2_PLACEMENT_3D('',#229,#186,#187);
#162=AXIS2_PLACEMENT_3D('',#231,#188,#189);
#163=AXIS2_PLACEMENT_3D('',#233,#191,#192);
#164=AXIS2_PLACEMENT_3D('',#239,#196,#197);
#165=AXIS2_PLACEMENT_3D('',#241,#198,#199);
#166=AXIS2_PLACEMENT_3D('',#244,#202,#203);
#167=AXIS2_PLACEMENT_3D('',#248,#206,#207);
#168=AXIS2_PLACEMENT_3D('',#250,#208,#209);
#169=AXIS2_PLACEMENT_3D('',#252,#211,#212);
#170=AXIS2_PLACEMENT_3D('',#253,#213,#214);
#171=DIRECTION('axis',(0.,0.,1.));
#172=DIRECTION('refdir',(1.,0.,0.));
#173=DIRECTION('center_axis',(0.,0.,1.));
#174=DIRECTION('ref_axis',(1.,0.,0.));
#175=DIRECTION('center_axis',(0.,0.,-1.));
#176=DIRECTION('ref_axis',(1.,0.,0.));
#177=DIRECTION('center_axis',(0.,0.,1.));
#178=DIRECTION('ref_axis',(1.,0.,0.));
#179=DIRECTION('center_axis',(0.,0.,-1.));
#180=DIRECTION('ref_axis',(1.,0.,0.));
#181=DIRECTION('center_axis',(0.,0.,1.));
#182=DIRECTION('ref_axis',(1.,0.,0.));
#183=DIRECTION('center_axis',(0.,0.,1.));
#184=DIRECTION('ref_axis',(1.,0.,0.));
#185=DIRECTION('',(1.,0.,0.));
#186=DIRECTION('center_axis',(0.,0.,1.));
#187=DIRECTION('ref_axis',(1.,0.,0.));
#188=DIRECTION('center_axis',(0.,0.,1.));
#189=DIRECTION('ref_axis',(1.,0.,0.));
#190=DIRECTION('',(-1.,0.,0.));
#191=DIRECTION('center_axis',(0.,1.,0.));
#192=DIRECTION('ref_axis',(-1.,0.,0.));
#193=DIRECTION('',(0.,0.,1.));
#194=DIRECTION('',(-1.,0.,0.));
#195=DIRECTION('',(0.,0.,1.));
#196=DIRECTION('center_axis',(0.,0.,1.));
#197=DIRECTION('ref_axis',(1.,0.,0.));
#198=DIRECTION('center_axis',(0.,0.,1.));
#199=DIRECTION('ref_axis',(1.,0.,0.));
#200=DIRECTION('',(0.,0.,1.));
#201=DIRECTION('',(0.,0.,-1.));
#202=DIRECTION('center_axis',(0.,-1.,0.));
#203=DIRECTION('ref_axis',(1.,0.,0.));
#204=DIRECTION('',(1.,0.,0.));
#205=DIRECTION('',(0.,0.,1.));
#206=DIRECTION('center_axis',(0.,0.,1.));
#207=DIRECTION('ref_axis',(1.,0.,0.));
#208=DIRECTION('center_axis',(0.,0.,1.));
#209=DIRECTION('ref_axis',(1.,0.,0.));
#210=DIRECTION('',(0.,0.,-1.));
#211=DIRECTION('center_axis',(0.,0.,1.));
#212=DIRECTION('ref_axis',(1.,0.,0.));
#213=DIRECTION('center_axis',(0.,0.,1.));
#214=DIRECTION('ref_axis',(1.,0.,0.));
#215=CARTESIAN_POINT('',(0.,0.,0.));
#216=CARTESIAN_POINT('Origin',(-141.554175269499,18.9127487335304,-5.));
#217=CARTESIAN_POINT('',(-191.554175269499,18.9127487335304,-5.));
#218=CARTESIAN_POINT('Origin',(-141.554175269499,18.9127487335304,-5.));
#219=CARTESIAN_POINT('Origin',(158.445824730501,18.9127487335304,-5.));
#220=CARTESIAN_POINT('',(108.445824730501,18.9127487335303,-5.));
#221=CARTESIAN_POINT('Origin',(158.445824730501,18.9127487335304,-5.));
#222=CARTESIAN_POINT('Origin',(8.44582473050107,18.9127487335304,0.));
#223=CARTESIAN_POINT('',(-141.554175269499,-31.0872512664696,0.));
#224=CARTESIAN_POINT('',(-141.554175269499,68.9127487335304,0.));
#225=CARTESIAN_POINT('Origin',(-141.554175269499,18.9127487335304,0.));
#226=CARTESIAN_POINT('',(158.445824730501,68.9127487335303,0.));
#227=CARTESIAN_POINT('',(-141.554175269499,68.9127487335304,0.));
#228=CARTESIAN_POINT('',(108.445824730501,18.9127487335303,0.));
#229=CARTESIAN_POINT('Origin',(158.445824730501,18.9127487335304,0.));
#230=CARTESIAN_POINT('',(158.445824730501,-31.0872512664696,0.));
#231=CARTESIAN_POINT('Origin',(158.445824730501,18.9127487335304,0.));
#232=CARTESIAN_POINT('',(158.445824730501,-31.0872512664696,0.));
#233=CARTESIAN_POINT('Origin',(158.445824730501,68.9127487335304,0.));
#234=CARTESIAN_POINT('',(-141.554175269499,68.9127487335304,80.));
#235=CARTESIAN_POINT('',(-141.554175269499,68.9127487335304,0.));
#236=CARTESIAN_POINT('',(158.445824730501,68.9127487335303,80.));
#237=CARTESIAN_POINT('',(-141.554175269499,68.9127487335304,80.));
#238=CARTESIAN_POINT('',(158.445824730501,68.9127487335303,0.));
#239=CARTESIAN_POINT('Origin',(158.445824730501,18.9127487335304,0.));
#240=CARTESIAN_POINT('',(158.445824730501,-31.0872512664696,80.));
#241=CARTESIAN_POINT('Origin',(158.445824730501,18.9127487335304,80.));
#242=CARTESIAN_POINT('',(158.445824730501,-31.0872512664696,0.));
#243=CARTESIAN_POINT('',(108.445824730501,18.9127487335303,0.));
#244=CARTESIAN_POINT('Origin',(-141.554175269499,-31.0872512664696,0.));
#245=CARTESIAN_POINT('',(-141.554175269499,-31.0872512664696,80.));
#246=CARTESIAN_POINT('',(158.445824730501,-31.0872512664696,80.));
#247=CARTESIAN_POINT('',(-141.554175269499,-31.0872512664696,0.));
#248=CARTESIAN_POINT('Origin',(-141.554175269499,18.9127487335304,0.));
#249=CARTESIAN_POINT('',(-191.554175269499,18.9127487335304,80.));
#250=CARTESIAN_POINT('Origin',(-141.554175269499,18.9127487335304,80.));
#251=CARTESIAN_POINT('',(-191.554175269499,18.9127487335304,0.));
#252=CARTESIAN_POINT('Origin',(-141.554175269499,18.9127487335304,80.));
#253=CARTESIAN_POINT('Origin',(8.44582473050107,18.9127487335304,80.));
#254=UNCERTAINTY_MEASURE_WITH_UNIT(LENGTH_MEASURE(0.01),#258,
'DISTANCE_ACCURACY_VALUE',
'Maximum model space distance between geometric entities at asserted c
onnectivities');
#255=UNCERTAINTY_MEASURE_WITH_UNIT(LENGTH_MEASURE(0.01),#258,
'DISTANCE_ACCURACY_VALUE',
'Maximum model space distance between geometric entities at asserted c
onnectivities');
#256=(
GEOMETRIC_REPRESENTATION_CONTEXT(3)
GLOBAL_UNCERTAINTY_ASSIGNED_CONTEXT((#254))
GLOBAL_UNIT_ASSIGNED_CONTEXT((#258,#260,#261))
REPRESENTATION_CONTEXT('','3D')
);
#257=(
GEOMETRIC_REPRESENTATION_CONTEXT(3)
GLOBAL_UNCERTAINTY_ASSIGNED_CONTEXT((#255))
GLOBAL_UNIT_ASSIGNED_CONTEXT((#258,#260,#261))
REPRESENTATION_CONTEXT('','3D')
);
#258=(
LENGTH_UNIT()
NAMED_UNIT(*)
SI_UNIT(.MILLI.,.METRE.)
);
#259=(
LENGTH_UNIT()
NAMED_UNIT(*)
SI_UNIT($,.METRE.)
);
#260=(
NAMED_UNIT(*)
PLANE_ANGLE_UNIT()
SI_UNIT($,.RADIAN.)
);
#261=(
NAMED_UNIT(*)
SI_UNIT($,.STERADIAN.)
SOLID_ANGLE_UNIT()
);
#262=SHAPE_DEFINITION_REPRESENTATION(#263,#264);
#263=PRODUCT_DEFINITION_SHAPE('',$,#266);
#264=SHAPE_REPRESENTATION('',(#154),#256);
#265=PRODUCT_DEFINITION_CONTEXT('part definition',#270,'design');
#266=PRODUCT_DEFINITION('body','body v2',#267,#265);
#267=PRODUCT_DEFINITION_FORMATION('',$,#272);
#268=PRODUCT_RELATED_PRODUCT_CATEGORY('body v2','body v2',(#272));
#269=APPLICATION_PROTOCOL_DEFINITION('international standard',
'ap242_managed_model_based_3d_engineering',2011,#270);
#270=APPLICATION_CONTEXT('Managed model based 3d engineering');
#271=PRODUCT_CONTEXT('part definition',#270,'mechanical');
#272=PRODUCT('body','body v2',$,(#271));
#273=PRESENTATION_STYLE_ASSIGNMENT((#274));
#274=SURFACE_STYLE_USAGE(.BOTH.,#275);
#275=SURFACE_SIDE_STYLE('',(#276));
#276=SURFACE_STYLE_FILL_AREA(#277);
#277=FILL_AREA_STYLE('Stal \X2\2014\X0\ satynowa',(#278));
#278=FILL_AREA_STYLE_COLOUR('Stal \X2\2014\X0\ satynowa',#279);
#279=COLOUR_RGB('Stal \X2\2014\X0\ satynowa',0.627450980392157,0.627450980392157,
0.627450980392157);
ENDSEC;
END-ISO-10303-21;
