ISO-10303-21;
HEADER;
/* Generated by software containing ST-Developer
 * from STEP Tools, Inc. (www.steptools.com) 
 */

FILE_DESCRIPTION(
/* description */ ('',
'CAx-IF Rec.Pracs.---Representation and Presentation of Product Manufa
cturing Information (PMI)---4.0---2014-10-13'),
/* implementation_level */ '2;1');

FILE_NAME(
/* name */ 'hip.step',
/* time_stamp */ '2025-03-30T12:13:45+02:00',
/* author */ (''),
/* organization */ (''),
/* preprocessor_version */ 'ST-DEVELOPER v20',
/* originating_system */ 'Autodesk Translation Framework v13.20.0.188',

/* authorisation */ '');

FILE_SCHEMA (('AP242_MANAGED_MODEL_BASED_3D_ENGINEERING_MIM_LF { 1 0 10303 442 1 1 4 }'));
ENDSEC;

DATA;
#10=MECHANICAL_DESIGN_GEOMETRIC_PRESENTATION_REPRESENTATION('',(#13),#230);
#11=SHAPE_REPRESENTATION_RELATIONSHIP('SRR','None',#237,#12);
#12=ADVANCED_BREP_SHAPE_REPRESENTATION('',(#14),#229);
#13=STYLED_ITEM('',(#246),#14);
#14=MANIFOLD_SOLID_BREP('Bry\X2\0142\X0\a1',#130);
#15=FACE_BOUND('',#38,.T.);
#16=PLANE('',#147);
#17=PLANE('',#148);
#18=PLANE('',#149);
#19=PLANE('',#150);
#20=PLANE('',#154);
#21=PLANE('',#155);
#22=FACE_OUTER_BOUND('',#30,.T.);
#23=FACE_OUTER_BOUND('',#31,.T.);
#24=FACE_OUTER_BOUND('',#32,.T.);
#25=FACE_OUTER_BOUND('',#33,.T.);
#26=FACE_OUTER_BOUND('',#34,.T.);
#27=FACE_OUTER_BOUND('',#35,.T.);
#28=FACE_OUTER_BOUND('',#36,.T.);
#29=FACE_OUTER_BOUND('',#37,.T.);
#30=EDGE_LOOP('',(#90,#91,#92,#93));
#31=EDGE_LOOP('',(#94,#95,#96,#97));
#32=EDGE_LOOP('',(#98,#99,#100,#101));
#33=EDGE_LOOP('',(#102,#103,#104,#105));
#34=EDGE_LOOP('',(#106,#107,#108,#109));
#35=EDGE_LOOP('',(#110,#111,#112,#113));
#36=EDGE_LOOP('',(#114));
#37=EDGE_LOOP('',(#115));
#38=EDGE_LOOP('',(#116,#117,#118,#119));
#39=LINE('',#199,#50);
#40=LINE('',#202,#51);
#41=LINE('',#206,#52);
#42=LINE('',#207,#53);
#43=LINE('',#208,#54);
#44=LINE('',#211,#55);
#45=LINE('',#212,#56);
#46=LINE('',#215,#57);
#47=LINE('',#216,#58);
#48=LINE('',#218,#59);
#49=LINE('',#223,#60);
#50=VECTOR('',#162,10.);
#51=VECTOR('',#165,10.);
#52=VECTOR('',#168,10.);
#53=VECTOR('',#169,10.);
#54=VECTOR('',#170,10.);
#55=VECTOR('',#173,10.);
#56=VECTOR('',#174,10.);
#57=VECTOR('',#177,10.);
#58=VECTOR('',#178,10.);
#59=VECTOR('',#181,10.);
#60=VECTOR('',#186,50.);
#61=CIRCLE('',#145,30.);
#62=CIRCLE('',#146,30.);
#63=CIRCLE('',#152,50.);
#64=CIRCLE('',#153,50.);
#65=VERTEX_POINT('',#195);
#66=VERTEX_POINT('',#196);
#67=VERTEX_POINT('',#198);
#68=VERTEX_POINT('',#200);
#69=VERTEX_POINT('',#204);
#70=VERTEX_POINT('',#205);
#71=VERTEX_POINT('',#210);
#72=VERTEX_POINT('',#214);
#73=VERTEX_POINT('',#220);
#74=VERTEX_POINT('',#222);
#75=EDGE_CURVE('',#65,#66,#61,.T.);
#76=EDGE_CURVE('',#65,#67,#39,.T.);
#77=EDGE_CURVE('',#68,#67,#62,.T.);
#78=EDGE_CURVE('',#68,#66,#40,.T.);
#79=EDGE_CURVE('',#69,#70,#41,.T.);
#80=EDGE_CURVE('',#69,#68,#42,.T.);
#81=EDGE_CURVE('',#70,#67,#43,.T.);
#82=EDGE_CURVE('',#70,#71,#44,.T.);
#83=EDGE_CURVE('',#71,#65,#45,.T.);
#84=EDGE_CURVE('',#71,#72,#46,.T.);
#85=EDGE_CURVE('',#72,#66,#47,.T.);
#86=EDGE_CURVE('',#72,#69,#48,.T.);
#87=EDGE_CURVE('',#73,#73,#63,.T.);
#88=EDGE_CURVE('',#73,#74,#49,.T.);
#89=EDGE_CURVE('',#74,#74,#64,.T.);
#90=ORIENTED_EDGE('',*,*,#75,.F.);
#91=ORIENTED_EDGE('',*,*,#76,.T.);
#92=ORIENTED_EDGE('',*,*,#77,.F.);
#93=ORIENTED_EDGE('',*,*,#78,.T.);
#94=ORIENTED_EDGE('',*,*,#79,.F.);
#95=ORIENTED_EDGE('',*,*,#80,.T.);
#96=ORIENTED_EDGE('',*,*,#77,.T.);
#97=ORIENTED_EDGE('',*,*,#81,.F.);
#98=ORIENTED_EDGE('',*,*,#82,.F.);
#99=ORIENTED_EDGE('',*,*,#81,.T.);
#100=ORIENTED_EDGE('',*,*,#76,.F.);
#101=ORIENTED_EDGE('',*,*,#83,.F.);
#102=ORIENTED_EDGE('',*,*,#84,.F.);
#103=ORIENTED_EDGE('',*,*,#83,.T.);
#104=ORIENTED_EDGE('',*,*,#75,.T.);
#105=ORIENTED_EDGE('',*,*,#85,.F.);
#106=ORIENTED_EDGE('',*,*,#86,.F.);
#107=ORIENTED_EDGE('',*,*,#85,.T.);
#108=ORIENTED_EDGE('',*,*,#78,.F.);
#109=ORIENTED_EDGE('',*,*,#80,.F.);
#110=ORIENTED_EDGE('',*,*,#87,.F.);
#111=ORIENTED_EDGE('',*,*,#88,.T.);
#112=ORIENTED_EDGE('',*,*,#89,.T.);
#113=ORIENTED_EDGE('',*,*,#88,.F.);
#114=ORIENTED_EDGE('',*,*,#87,.T.);
#115=ORIENTED_EDGE('',*,*,#89,.F.);
#116=ORIENTED_EDGE('',*,*,#79,.T.);
#117=ORIENTED_EDGE('',*,*,#82,.T.);
#118=ORIENTED_EDGE('',*,*,#84,.T.);
#119=ORIENTED_EDGE('',*,*,#86,.T.);
#120=CYLINDRICAL_SURFACE('',#144,30.);
#121=CYLINDRICAL_SURFACE('',#151,50.);
#122=ADVANCED_FACE('',(#22),#120,.T.);
#123=ADVANCED_FACE('',(#23),#16,.T.);
#124=ADVANCED_FACE('',(#24),#17,.T.);
#125=ADVANCED_FACE('',(#25),#18,.T.);
#126=ADVANCED_FACE('',(#26),#19,.T.);
#127=ADVANCED_FACE('',(#27),#121,.T.);
#128=ADVANCED_FACE('',(#28),#20,.T.);
#129=ADVANCED_FACE('',(#29,#15),#21,.F.);
#130=CLOSED_SHELL('',(#122,#123,#124,#125,#126,#127,#128,#129));
#131=DERIVED_UNIT_ELEMENT(#133,1.);
#132=DERIVED_UNIT_ELEMENT(#232,-3.);
#133=(
MASS_UNIT()
NAMED_UNIT(*)
SI_UNIT(.KILO.,.GRAM.)
);
#134=DERIVED_UNIT((#131,#132));
#135=MEASURE_REPRESENTATION_ITEM('density measure',
POSITIVE_RATIO_MEASURE(7850.),#134);
#136=PROPERTY_DEFINITION_REPRESENTATION(#141,#138);
#137=PROPERTY_DEFINITION_REPRESENTATION(#142,#139);
#138=REPRESENTATION('material name',(#140),#229);
#139=REPRESENTATION('density',(#135),#229);
#140=DESCRIPTIVE_REPRESENTATION_ITEM('Stal','Stal');
#141=PROPERTY_DEFINITION('material property','material name',#239);
#142=PROPERTY_DEFINITION('material property','density of part',#239);
#143=AXIS2_PLACEMENT_3D('',#193,#156,#157);
#144=AXIS2_PLACEMENT_3D('',#194,#158,#159);
#145=AXIS2_PLACEMENT_3D('',#197,#160,#161);
#146=AXIS2_PLACEMENT_3D('',#201,#163,#164);
#147=AXIS2_PLACEMENT_3D('',#203,#166,#167);
#148=AXIS2_PLACEMENT_3D('',#209,#171,#172);
#149=AXIS2_PLACEMENT_3D('',#213,#175,#176);
#150=AXIS2_PLACEMENT_3D('',#217,#179,#180);
#151=AXIS2_PLACEMENT_3D('',#219,#182,#183);
#152=AXIS2_PLACEMENT_3D('',#221,#184,#185);
#153=AXIS2_PLACEMENT_3D('',#224,#187,#188);
#154=AXIS2_PLACEMENT_3D('',#225,#189,#190);
#155=AXIS2_PLACEMENT_3D('',#226,#191,#192);
#156=DIRECTION('axis',(0.,0.,1.));
#157=DIRECTION('refdir',(1.,0.,0.));
#158=DIRECTION('center_axis',(-1.,0.,0.));
#159=DIRECTION('ref_axis',(0.,1.,0.));
#160=DIRECTION('center_axis',(1.,0.,0.));
#161=DIRECTION('ref_axis',(0.,1.,0.));
#162=DIRECTION('',(-1.,0.,0.));
#163=DIRECTION('center_axis',(-1.,0.,0.));
#164=DIRECTION('ref_axis',(0.,1.,0.));
#165=DIRECTION('',(1.,0.,0.));
#166=DIRECTION('center_axis',(-1.,1.85037170770859E-17,0.));
#167=DIRECTION('ref_axis',(1.85037170770859E-17,1.,0.));
#168=DIRECTION('',(-1.85037170770859E-17,-1.,0.));
#169=DIRECTION('',(0.,0.,-1.));
#170=DIRECTION('',(0.,0.,-1.));
#171=DIRECTION('center_axis',(0.,-1.,0.));
#172=DIRECTION('ref_axis',(-1.,0.,0.));
#173=DIRECTION('',(1.,0.,0.));
#174=DIRECTION('',(0.,0.,-1.));
#175=DIRECTION('center_axis',(1.,0.,0.));
#176=DIRECTION('ref_axis',(0.,-1.,0.));
#177=DIRECTION('',(0.,1.,0.));
#178=DIRECTION('',(0.,0.,-1.));
#179=DIRECTION('center_axis',(0.,1.,0.));
#180=DIRECTION('ref_axis',(1.,0.,0.));
#181=DIRECTION('',(-1.,0.,0.));
#182=DIRECTION('center_axis',(0.,0.,1.));
#183=DIRECTION('ref_axis',(1.,0.,0.));
#184=DIRECTION('center_axis',(0.,0.,1.));
#185=DIRECTION('ref_axis',(1.,0.,0.));
#186=DIRECTION('',(0.,0.,-1.));
#187=DIRECTION('center_axis',(0.,0.,1.));
#188=DIRECTION('ref_axis',(1.,0.,0.));
#189=DIRECTION('center_axis',(0.,0.,1.));
#190=DIRECTION('ref_axis',(1.,0.,0.));
#191=DIRECTION('center_axis',(0.,0.,1.));
#192=DIRECTION('ref_axis',(1.,0.,0.));
#193=CARTESIAN_POINT('',(0.,0.,0.));
#194=CARTESIAN_POINT('Origin',(47.3331529302168,26.4369839816851,-60.));
#195=CARTESIAN_POINT('',(47.3331529302168,-3.56301601831489,-60.));
#196=CARTESIAN_POINT('',(47.3331529302168,56.4369839816851,-60.));
#197=CARTESIAN_POINT('Origin',(47.3331529302168,26.4369839816851,-60.));
#198=CARTESIAN_POINT('',(7.33315293021679,-3.56301601831489,-60.));
#199=CARTESIAN_POINT('',(7.33315293021679,-3.56301601831489,-60.));
#200=CARTESIAN_POINT('',(7.33315293021679,56.4369839816851,-60.));
#201=CARTESIAN_POINT('Origin',(7.33315293021679,26.4369839816851,-60.));
#202=CARTESIAN_POINT('',(47.3331529302168,56.4369839816851,-60.));
#203=CARTESIAN_POINT('Origin',(7.33315293021679,-3.56301601831489,0.));
#204=CARTESIAN_POINT('',(7.33315293021679,56.4369839816851,0.));
#205=CARTESIAN_POINT('',(7.33315293021679,-3.56301601831489,0.));
#206=CARTESIAN_POINT('',(7.33315293021679,11.4369839816851,0.));
#207=CARTESIAN_POINT('',(7.33315293021679,56.4369839816851,0.));
#208=CARTESIAN_POINT('',(7.33315293021679,-3.56301601831489,0.));
#209=CARTESIAN_POINT('Origin',(47.3331529302168,-3.56301601831489,0.));
#210=CARTESIAN_POINT('',(47.3331529302168,-3.56301601831489,0.));
#211=CARTESIAN_POINT('',(37.3331529302168,-3.56301601831489,0.));
#212=CARTESIAN_POINT('',(47.3331529302168,-3.56301601831489,0.));
#213=CARTESIAN_POINT('Origin',(47.3331529302168,56.4369839816851,0.));
#214=CARTESIAN_POINT('',(47.3331529302168,56.4369839816851,0.));
#215=CARTESIAN_POINT('',(47.3331529302168,41.4369839816851,0.));
#216=CARTESIAN_POINT('',(47.3331529302168,56.4369839816851,0.));
#217=CARTESIAN_POINT('Origin',(7.33315293021679,56.4369839816851,0.));
#218=CARTESIAN_POINT('',(17.3331529302168,56.4369839816851,0.));
#219=CARTESIAN_POINT('Origin',(27.3331529302168,26.4369839816851,0.));
#220=CARTESIAN_POINT('',(-22.6668470697832,26.4369839816851,40.));
#221=CARTESIAN_POINT('Origin',(27.3331529302168,26.4369839816851,40.));
#222=CARTESIAN_POINT('',(-22.6668470697832,26.4369839816851,0.));
#223=CARTESIAN_POINT('',(-22.6668470697832,26.4369839816851,0.));
#224=CARTESIAN_POINT('Origin',(27.3331529302168,26.4369839816851,0.));
#225=CARTESIAN_POINT('Origin',(27.3331529302168,26.4369839816851,40.));
#226=CARTESIAN_POINT('Origin',(27.3331529302168,26.4369839816851,0.));
#227=UNCERTAINTY_MEASURE_WITH_UNIT(LENGTH_MEASURE(0.01),#231,
'DISTANCE_ACCURACY_VALUE',
'Maximum model space distance between geometric entities at asserted c
onnectivities');
#228=UNCERTAINTY_MEASURE_WITH_UNIT(LENGTH_MEASURE(0.01),#231,
'DISTANCE_ACCURACY_VALUE',
'Maximum model space distance between geometric entities at asserted c
onnectivities');
#229=(
GEOMETRIC_REPRESENTATION_CONTEXT(3)
GLOBAL_UNCERTAINTY_ASSIGNED_CONTEXT((#227))
GLOBAL_UNIT_ASSIGNED_CONTEXT((#231,#233,#234))
REPRESENTATION_CONTEXT('','3D')
);
#230=(
GEOMETRIC_REPRESENTATION_CONTEXT(3)
GLOBAL_UNCERTAINTY_ASSIGNED_CONTEXT((#228))
GLOBAL_UNIT_ASSIGNED_CONTEXT((#231,#233,#234))
REPRESENTATION_CONTEXT('','3D')
);
#231=(
LENGTH_UNIT()
NAMED_UNIT(*)
SI_UNIT(.MILLI.,.METRE.)
);
#232=(
LENGTH_UNIT()
NAMED_UNIT(*)
SI_UNIT($,.METRE.)
);
#233=(
NAMED_UNIT(*)
PLANE_ANGLE_UNIT()
SI_UNIT($,.RADIAN.)
);
#234=(
NAMED_UNIT(*)
SI_UNIT($,.STERADIAN.)
SOLID_ANGLE_UNIT()
);
#235=SHAPE_DEFINITION_REPRESENTATION(#236,#237);
#236=PRODUCT_DEFINITION_SHAPE('',$,#239);
#237=SHAPE_REPRESENTATION('',(#143),#229);
#238=PRODUCT_DEFINITION_CONTEXT('part definition',#243,'design');
#239=PRODUCT_DEFINITION('Hip','Hip v1',#240,#238);
#240=PRODUCT_DEFINITION_FORMATION('',$,#245);
#241=PRODUCT_RELATED_PRODUCT_CATEGORY('Hip v1','Hip v1',(#245));
#242=APPLICATION_PROTOCOL_DEFINITION('international standard',
'ap242_managed_model_based_3d_engineering',2011,#243);
#243=APPLICATION_CONTEXT('Managed model based 3d engineering');
#244=PRODUCT_CONTEXT('part definition',#243,'mechanical');
#245=PRODUCT('Hip','Hip v1',$,(#244));
#246=PRESENTATION_STYLE_ASSIGNMENT((#247));
#247=SURFACE_STYLE_USAGE(.BOTH.,#248);
#248=SURFACE_SIDE_STYLE('',(#249));
#249=SURFACE_STYLE_FILL_AREA(#250);
#250=FILL_AREA_STYLE('Stal \X2\2014\X0\ satynowa',(#251));
#251=FILL_AREA_STYLE_COLOUR('Stal \X2\2014\X0\ satynowa',#252);
#252=COLOUR_RGB('Stal \X2\2014\X0\ satynowa',0.627450980392157,0.627450980392157,
0.627450980392157);
ENDSEC;
END-ISO-10303-21;
