ISO-10303-21;
HEADER;
/* Generated by software containing ST-Developer
 * from STEP Tools, Inc. (www.steptools.com) 
 */

FILE_DESCRIPTION(
/* description */ ('',
'CAx-IF Rec.Pracs.---Representation and Presentation of Product Manufa
cturing Information (PMI)---4.0---2014-10-13'),
/* implementation_level */ '2;1');

FILE_NAME(
/* name */ 'shin.step',
/* time_stamp */ '2025-03-30T12:13:55+02:00',
/* author */ (''),
/* organization */ (''),
/* preprocessor_version */ 'ST-DEVELOPER v20',
/* originating_system */ 'Autodesk Translation Framework v13.20.0.188',

/* authorisation */ '');

FILE_SCHEMA (('AP242_MANAGED_MODEL_BASED_3D_ENGINEERING_MIM_LF { 1 0 10303 442 1 1 4 }'));
ENDSEC;

DATA;
#10=MECHANICAL_DESIGN_GEOMETRIC_PRESENTATION_REPRESENTATION('',(#13),#321);
#11=SHAPE_REPRESENTATION_RELATIONSHIP('SRR','None',#328,#12);
#12=ADVANCED_BREP_SHAPE_REPRESENTATION('',(#14),#320);
#13=STYLED_ITEM('',(#337),#14);
#14=MANIFOLD_SOLID_BREP('Bry\X2\0142\X0\a1',#185);
#15=CYLINDRICAL_SURFACE('',#204,50.);
#16=CYLINDRICAL_SURFACE('',#206,50.);
#17=CYLINDRICAL_SURFACE('',#209,50.);
#18=CIRCLE('',#201,50.);
#19=CIRCLE('',#203,50.);
#20=CIRCLE('',#205,50.);
#21=CIRCLE('',#207,50.);
#22=CIRCLE('',#210,50.);
#23=CIRCLE('',#211,50.);
#24=FACE_OUTER_BOUND('',#34,.T.);
#25=FACE_OUTER_BOUND('',#35,.T.);
#26=FACE_OUTER_BOUND('',#36,.T.);
#27=FACE_OUTER_BOUND('',#37,.T.);
#28=FACE_OUTER_BOUND('',#38,.T.);
#29=FACE_OUTER_BOUND('',#39,.T.);
#30=FACE_OUTER_BOUND('',#40,.T.);
#31=FACE_OUTER_BOUND('',#41,.T.);
#32=FACE_OUTER_BOUND('',#42,.T.);
#33=FACE_OUTER_BOUND('',#43,.T.);
#34=EDGE_LOOP('',(#120,#121,#122,#123));
#35=EDGE_LOOP('',(#124,#125,#126,#127));
#36=EDGE_LOOP('',(#128,#129,#130,#131));
#37=EDGE_LOOP('',(#132,#133,#134,#135));
#38=EDGE_LOOP('',(#136,#137,#138,#139));
#39=EDGE_LOOP('',(#140,#141,#142,#143,#144,#145,#146,#147));
#40=EDGE_LOOP('',(#148,#149,#150,#151));
#41=EDGE_LOOP('',(#152,#153,#154,#155,#156,#157,#158,#159));
#42=EDGE_LOOP('',(#160,#161,#162,#163));
#43=EDGE_LOOP('',(#164,#165,#166,#167));
#44=LINE('',#271,#62);
#45=LINE('',#273,#63);
#46=LINE('',#275,#64);
#47=LINE('',#276,#65);
#48=LINE('',#279,#66);
#49=LINE('',#281,#67);
#50=LINE('',#285,#68);
#51=LINE('',#288,#69);
#52=LINE('',#291,#70);
#53=LINE('',#294,#71);
#54=LINE('',#297,#72);
#55=LINE('',#300,#73);
#56=LINE('',#303,#74);
#57=LINE('',#305,#75);
#58=LINE('',#306,#76);
#59=LINE('',#312,#77);
#60=LINE('',#314,#78);
#61=LINE('',#315,#79);
#62=VECTOR('',#219,10.);
#63=VECTOR('',#220,10.);
#64=VECTOR('',#221,10.);
#65=VECTOR('',#222,10.);
#66=VECTOR('',#225,10.);
#67=VECTOR('',#226,10.);
#68=VECTOR('',#231,10.);
#69=VECTOR('',#234,10.);
#70=VECTOR('',#237,10.);
#71=VECTOR('',#240,10.);
#72=VECTOR('',#243,10.);
#73=VECTOR('',#246,10.);
#74=VECTOR('',#249,10.);
#75=VECTOR('',#250,10.);
#76=VECTOR('',#251,10.);
#77=VECTOR('',#258,10.);
#78=VECTOR('',#261,10.);
#79=VECTOR('',#262,10.);
#80=VERTEX_POINT('',#269);
#81=VERTEX_POINT('',#270);
#82=VERTEX_POINT('',#272);
#83=VERTEX_POINT('',#274);
#84=VERTEX_POINT('',#278);
#85=VERTEX_POINT('',#280);
#86=VERTEX_POINT('',#284);
#87=VERTEX_POINT('',#286);
#88=VERTEX_POINT('',#290);
#89=VERTEX_POINT('',#292);
#90=VERTEX_POINT('',#296);
#91=VERTEX_POINT('',#298);
#92=VERTEX_POINT('',#302);
#93=VERTEX_POINT('',#304);
#94=VERTEX_POINT('',#308);
#95=VERTEX_POINT('',#310);
#96=EDGE_CURVE('',#80,#81,#44,.T.);
#97=EDGE_CURVE('',#81,#82,#45,.T.);
#98=EDGE_CURVE('',#83,#82,#46,.T.);
#99=EDGE_CURVE('',#80,#83,#47,.T.);
#100=EDGE_CURVE('',#84,#83,#48,.T.);
#101=EDGE_CURVE('',#82,#85,#49,.T.);
#102=EDGE_CURVE('',#84,#85,#18,.T.);
#103=EDGE_CURVE('',#86,#80,#50,.T.);
#104=EDGE_CURVE('',#87,#86,#19,.T.);
#105=EDGE_CURVE('',#81,#87,#51,.T.);
#106=EDGE_CURVE('',#88,#86,#52,.T.);
#107=EDGE_CURVE('',#88,#89,#20,.T.);
#108=EDGE_CURVE('',#89,#87,#53,.T.);
#109=EDGE_CURVE('',#85,#90,#54,.T.);
#110=EDGE_CURVE('',#91,#90,#21,.T.);
#111=EDGE_CURVE('',#84,#91,#55,.T.);
#112=EDGE_CURVE('',#92,#88,#56,.T.);
#113=EDGE_CURVE('',#93,#91,#57,.T.);
#114=EDGE_CURVE('',#92,#93,#58,.T.);
#115=EDGE_CURVE('',#94,#92,#22,.T.);
#116=EDGE_CURVE('',#95,#93,#23,.T.);
#117=EDGE_CURVE('',#94,#95,#59,.T.);
#118=EDGE_CURVE('',#89,#94,#60,.T.);
#119=EDGE_CURVE('',#90,#95,#61,.T.);
#120=ORIENTED_EDGE('',*,*,#96,.T.);
#121=ORIENTED_EDGE('',*,*,#97,.T.);
#122=ORIENTED_EDGE('',*,*,#98,.F.);
#123=ORIENTED_EDGE('',*,*,#99,.F.);
#124=ORIENTED_EDGE('',*,*,#100,.T.);
#125=ORIENTED_EDGE('',*,*,#98,.T.);
#126=ORIENTED_EDGE('',*,*,#101,.T.);
#127=ORIENTED_EDGE('',*,*,#102,.F.);
#128=ORIENTED_EDGE('',*,*,#103,.F.);
#129=ORIENTED_EDGE('',*,*,#104,.F.);
#130=ORIENTED_EDGE('',*,*,#105,.F.);
#131=ORIENTED_EDGE('',*,*,#96,.F.);
#132=ORIENTED_EDGE('',*,*,#104,.T.);
#133=ORIENTED_EDGE('',*,*,#106,.F.);
#134=ORIENTED_EDGE('',*,*,#107,.T.);
#135=ORIENTED_EDGE('',*,*,#108,.T.);
#136=ORIENTED_EDGE('',*,*,#102,.T.);
#137=ORIENTED_EDGE('',*,*,#109,.T.);
#138=ORIENTED_EDGE('',*,*,#110,.F.);
#139=ORIENTED_EDGE('',*,*,#111,.F.);
#140=ORIENTED_EDGE('',*,*,#112,.T.);
#141=ORIENTED_EDGE('',*,*,#106,.T.);
#142=ORIENTED_EDGE('',*,*,#103,.T.);
#143=ORIENTED_EDGE('',*,*,#99,.T.);
#144=ORIENTED_EDGE('',*,*,#100,.F.);
#145=ORIENTED_EDGE('',*,*,#111,.T.);
#146=ORIENTED_EDGE('',*,*,#113,.F.);
#147=ORIENTED_EDGE('',*,*,#114,.F.);
#148=ORIENTED_EDGE('',*,*,#115,.T.);
#149=ORIENTED_EDGE('',*,*,#114,.T.);
#150=ORIENTED_EDGE('',*,*,#116,.F.);
#151=ORIENTED_EDGE('',*,*,#117,.F.);
#152=ORIENTED_EDGE('',*,*,#118,.T.);
#153=ORIENTED_EDGE('',*,*,#117,.T.);
#154=ORIENTED_EDGE('',*,*,#119,.F.);
#155=ORIENTED_EDGE('',*,*,#109,.F.);
#156=ORIENTED_EDGE('',*,*,#101,.F.);
#157=ORIENTED_EDGE('',*,*,#97,.F.);
#158=ORIENTED_EDGE('',*,*,#105,.T.);
#159=ORIENTED_EDGE('',*,*,#108,.F.);
#160=ORIENTED_EDGE('',*,*,#110,.T.);
#161=ORIENTED_EDGE('',*,*,#119,.T.);
#162=ORIENTED_EDGE('',*,*,#116,.T.);
#163=ORIENTED_EDGE('',*,*,#113,.T.);
#164=ORIENTED_EDGE('',*,*,#107,.F.);
#165=ORIENTED_EDGE('',*,*,#112,.F.);
#166=ORIENTED_EDGE('',*,*,#115,.F.);
#167=ORIENTED_EDGE('',*,*,#118,.F.);
#168=PLANE('',#199);
#169=PLANE('',#200);
#170=PLANE('',#202);
#171=PLANE('',#208);
#172=PLANE('',#212);
#173=PLANE('',#213);
#174=PLANE('',#214);
#175=ADVANCED_FACE('',(#24),#168,.T.);
#176=ADVANCED_FACE('',(#25),#169,.T.);
#177=ADVANCED_FACE('',(#26),#170,.F.);
#178=ADVANCED_FACE('',(#27),#15,.T.);
#179=ADVANCED_FACE('',(#28),#16,.T.);
#180=ADVANCED_FACE('',(#29),#171,.T.);
#181=ADVANCED_FACE('',(#30),#17,.T.);
#182=ADVANCED_FACE('',(#31),#172,.T.);
#183=ADVANCED_FACE('',(#32),#173,.T.);
#184=ADVANCED_FACE('',(#33),#174,.F.);
#185=CLOSED_SHELL('',(#175,#176,#177,#178,#179,#180,#181,#182,#183,#184));
#186=DERIVED_UNIT_ELEMENT(#188,1.);
#187=DERIVED_UNIT_ELEMENT(#323,-3.);
#188=(
MASS_UNIT()
NAMED_UNIT(*)
SI_UNIT(.KILO.,.GRAM.)
);
#189=DERIVED_UNIT((#186,#187));
#190=MEASURE_REPRESENTATION_ITEM('density measure',
POSITIVE_RATIO_MEASURE(7850.),#189);
#191=PROPERTY_DEFINITION_REPRESENTATION(#196,#193);
#192=PROPERTY_DEFINITION_REPRESENTATION(#197,#194);
#193=REPRESENTATION('material name',(#195),#320);
#194=REPRESENTATION('density',(#190),#320);
#195=DESCRIPTIVE_REPRESENTATION_ITEM('Stal','Stal');
#196=PROPERTY_DEFINITION('material property','material name',#330);
#197=PROPERTY_DEFINITION('material property','density of part',#330);
#198=AXIS2_PLACEMENT_3D('',#267,#215,#216);
#199=AXIS2_PLACEMENT_3D('',#268,#217,#218);
#200=AXIS2_PLACEMENT_3D('',#277,#223,#224);
#201=AXIS2_PLACEMENT_3D('',#282,#227,#228);
#202=AXIS2_PLACEMENT_3D('',#283,#229,#230);
#203=AXIS2_PLACEMENT_3D('',#287,#232,#233);
#204=AXIS2_PLACEMENT_3D('',#289,#235,#236);
#205=AXIS2_PLACEMENT_3D('',#293,#238,#239);
#206=AXIS2_PLACEMENT_3D('',#295,#241,#242);
#207=AXIS2_PLACEMENT_3D('',#299,#244,#245);
#208=AXIS2_PLACEMENT_3D('',#301,#247,#248);
#209=AXIS2_PLACEMENT_3D('',#307,#252,#253);
#210=AXIS2_PLACEMENT_3D('',#309,#254,#255);
#211=AXIS2_PLACEMENT_3D('',#311,#256,#257);
#212=AXIS2_PLACEMENT_3D('',#313,#259,#260);
#213=AXIS2_PLACEMENT_3D('',#316,#263,#264);
#214=AXIS2_PLACEMENT_3D('',#317,#265,#266);
#215=DIRECTION('axis',(0.,0.,1.));
#216=DIRECTION('refdir',(1.,0.,0.));
#217=DIRECTION('center_axis',(1.01506105108586E-15,-1.,0.));
#218=DIRECTION('ref_axis',(1.,1.01506105108586E-15,0.));
#219=DIRECTION('',(1.,1.01506105108586E-15,0.));
#220=DIRECTION('',(0.,0.,1.));
#221=DIRECTION('',(1.,1.01506105108586E-15,0.));
#222=DIRECTION('',(0.,0.,1.));
#223=DIRECTION('center_axis',(0.,0.,1.));
#224=DIRECTION('ref_axis',(1.,0.,0.));
#225=DIRECTION('',(0.0747899482416293,-0.997199309888457,0.));
#226=DIRECTION('',(0.0747899482416394,0.997199309888456,0.));
#227=DIRECTION('center_axis',(0.,0.,1.));
#228=DIRECTION('ref_axis',(1.,0.,0.));
#229=DIRECTION('center_axis',(0.,0.,1.));
#230=DIRECTION('ref_axis',(1.,0.,0.));
#231=DIRECTION('',(0.0747899482416293,-0.997199309888457,0.));
#232=DIRECTION('center_axis',(0.,0.,-1.));
#233=DIRECTION('ref_axis',(1.,0.,0.));
#234=DIRECTION('',(0.0747899482416394,0.997199309888456,0.));
#235=DIRECTION('center_axis',(0.,0.,1.));
#236=DIRECTION('ref_axis',(1.,0.,0.));
#237=DIRECTION('',(0.,0.,1.));
#238=DIRECTION('center_axis',(0.,0.,1.));
#239=DIRECTION('ref_axis',(1.,0.,0.));
#240=DIRECTION('',(0.,0.,1.));
#241=DIRECTION('center_axis',(0.,0.,1.));
#242=DIRECTION('ref_axis',(1.,0.,0.));
#243=DIRECTION('',(0.,0.,1.));
#244=DIRECTION('center_axis',(0.,0.,1.));
#245=DIRECTION('ref_axis',(1.,0.,0.));
#246=DIRECTION('',(0.,0.,1.));
#247=DIRECTION('center_axis',(-0.997199309888457,-0.0747899482416293,0.));
#248=DIRECTION('ref_axis',(0.0747899482416293,-0.997199309888457,0.));
#249=DIRECTION('',(0.0747899482416293,-0.997199309888457,0.));
#250=DIRECTION('',(0.0747899482416293,-0.997199309888457,0.));
#251=DIRECTION('',(0.,0.,1.));
#252=DIRECTION('center_axis',(0.,0.,1.));
#253=DIRECTION('ref_axis',(1.,0.,0.));
#254=DIRECTION('center_axis',(0.,0.,1.));
#255=DIRECTION('ref_axis',(1.,0.,0.));
#256=DIRECTION('center_axis',(0.,0.,1.));
#257=DIRECTION('ref_axis',(1.,0.,0.));
#258=DIRECTION('',(0.,0.,1.));
#259=DIRECTION('center_axis',(0.997199309888456,-0.0747899482416394,0.));
#260=DIRECTION('ref_axis',(0.0747899482416394,0.997199309888456,0.));
#261=DIRECTION('',(0.0747899482416394,0.997199309888456,0.));
#262=DIRECTION('',(0.0747899482416394,0.997199309888456,0.));
#263=DIRECTION('center_axis',(0.,0.,1.));
#264=DIRECTION('ref_axis',(1.,0.,0.));
#265=DIRECTION('center_axis',(0.,0.,1.));
#266=DIRECTION('ref_axis',(1.,0.,0.));
#267=CARTESIAN_POINT('',(0.,0.,0.));
#268=CARTESIAN_POINT('Origin',(30.0000056195522,-157.668688267193,5.));
#269=CARTESIAN_POINT('',(30.0000056195522,-157.668688267193,5.));
#270=CARTESIAN_POINT('',(100.000005619552,-157.668688267193,5.));
#271=CARTESIAN_POINT('',(30.0000056195522,-157.668688267193,5.));
#272=CARTESIAN_POINT('',(100.000005619552,-157.668688267193,35.));
#273=CARTESIAN_POINT('',(100.000005619552,-157.668688267193,5.));
#274=CARTESIAN_POINT('',(30.0000056195522,-157.668688267193,35.));
#275=CARTESIAN_POINT('',(30.0000056195522,-157.668688267193,35.));
#276=CARTESIAN_POINT('',(30.0000056195522,-157.668688267193,5.));
#277=CARTESIAN_POINT('Origin',(65.0000056195515,-61.3977050005826,35.));
#278=CARTESIAN_POINT('',(15.5593581295617,34.8732782660275,35.));
#279=CARTESIAN_POINT('',(15.0000056195532,42.3313117328073,35.));
#280=CARTESIAN_POINT('',(114.440653109541,34.8732782659835,35.));
#281=CARTESIAN_POINT('',(100.000005619552,-157.668688267193,35.));
#282=CARTESIAN_POINT('Origin',(65.0000056195548,42.3313192802774,35.));
#283=CARTESIAN_POINT('Origin',(65.0000056195515,-61.3977050005826,5.));
#284=CARTESIAN_POINT('',(15.5593581295617,34.8732782660275,5.));
#285=CARTESIAN_POINT('',(15.0000056195532,42.3313117328073,5.));
#286=CARTESIAN_POINT('',(114.440653109541,34.8732782659835,5.));
#287=CARTESIAN_POINT('Origin',(65.0000056195548,42.3313192802774,5.));
#288=CARTESIAN_POINT('',(100.000005619552,-157.668688267193,5.));
#289=CARTESIAN_POINT('Origin',(65.0000056195548,42.3313192802774,0.));
#290=CARTESIAN_POINT('',(15.5593581295617,34.8732782660275,0.));
#291=CARTESIAN_POINT('',(15.5593581295617,34.8732782660275,0.));
#292=CARTESIAN_POINT('',(114.440653109541,34.8732782659835,0.));
#293=CARTESIAN_POINT('Origin',(65.0000056195548,42.3313192802774,0.));
#294=CARTESIAN_POINT('',(114.440653109541,34.8732782659835,0.));
#295=CARTESIAN_POINT('Origin',(65.0000056195548,42.3313192802774,0.));
#296=CARTESIAN_POINT('',(114.440653109541,34.8732782659835,40.));
#297=CARTESIAN_POINT('',(114.440653109541,34.8732782659835,0.));
#298=CARTESIAN_POINT('',(15.5593581295617,34.8732782660275,40.));
#299=CARTESIAN_POINT('Origin',(65.0000056195548,42.3313192802774,40.));
#300=CARTESIAN_POINT('',(15.5593581295617,34.8732782660275,0.));
#301=CARTESIAN_POINT('Origin',(15.0000056195532,42.3313117328073,0.));
#302=CARTESIAN_POINT('',(15.0000056195532,42.3313117328073,0.));
#303=CARTESIAN_POINT('',(15.0000056195532,42.3313117328073,0.));
#304=CARTESIAN_POINT('',(15.0000056195532,42.3313117328073,40.));
#305=CARTESIAN_POINT('',(15.0000056195532,42.3313117328073,40.));
#306=CARTESIAN_POINT('',(15.0000056195532,42.3313117328073,0.));
#307=CARTESIAN_POINT('Origin',(65.0000056195548,42.3313192802774,0.));
#308=CARTESIAN_POINT('',(115.000005619553,42.3313117328073,0.));
#309=CARTESIAN_POINT('Origin',(65.0000056195548,42.3313192802774,0.));
#310=CARTESIAN_POINT('',(115.000005619553,42.3313117328073,40.));
#311=CARTESIAN_POINT('Origin',(65.0000056195548,42.3313192802774,40.));
#312=CARTESIAN_POINT('',(115.000005619553,42.3313117328073,0.));
#313=CARTESIAN_POINT('Origin',(114.440653109541,34.8732782659835,0.));
#314=CARTESIAN_POINT('',(100.000005619552,-157.668688267193,0.));
#315=CARTESIAN_POINT('',(100.000005619552,-157.668688267193,40.));
#316=CARTESIAN_POINT('Origin',(65.000005619554,42.3313192802774,40.));
#317=CARTESIAN_POINT('Origin',(65.000005619554,42.3313192802774,0.));
#318=UNCERTAINTY_MEASURE_WITH_UNIT(LENGTH_MEASURE(0.01),#322,
'DISTANCE_ACCURACY_VALUE',
'Maximum model space distance between geometric entities at asserted c
onnectivities');
#319=UNCERTAINTY_MEASURE_WITH_UNIT(LENGTH_MEASURE(0.01),#322,
'DISTANCE_ACCURACY_VALUE',
'Maximum model space distance between geometric entities at asserted c
onnectivities');
#320=(
GEOMETRIC_REPRESENTATION_CONTEXT(3)
GLOBAL_UNCERTAINTY_ASSIGNED_CONTEXT((#318))
GLOBAL_UNIT_ASSIGNED_CONTEXT((#322,#324,#325))
REPRESENTATION_CONTEXT('','3D')
);
#321=(
GEOMETRIC_REPRESENTATION_CONTEXT(3)
GLOBAL_UNCERTAINTY_ASSIGNED_CONTEXT((#319))
GLOBAL_UNIT_ASSIGNED_CONTEXT((#322,#324,#325))
REPRESENTATION_CONTEXT('','3D')
);
#322=(
LENGTH_UNIT()
NAMED_UNIT(*)
SI_UNIT(.MILLI.,.METRE.)
);
#323=(
LENGTH_UNIT()
NAMED_UNIT(*)
SI_UNIT($,.METRE.)
);
#324=(
NAMED_UNIT(*)
PLANE_ANGLE_UNIT()
SI_UNIT($,.RADIAN.)
);
#325=(
NAMED_UNIT(*)
SI_UNIT($,.STERADIAN.)
SOLID_ANGLE_UNIT()
);
#326=SHAPE_DEFINITION_REPRESENTATION(#327,#328);
#327=PRODUCT_DEFINITION_SHAPE('',$,#330);
#328=SHAPE_REPRESENTATION('',(#198),#320);
#329=PRODUCT_DEFINITION_CONTEXT('part definition',#334,'design');
#330=PRODUCT_DEFINITION('Shin','Shin v3',#331,#329);
#331=PRODUCT_DEFINITION_FORMATION('',$,#336);
#332=PRODUCT_RELATED_PRODUCT_CATEGORY('Shin v3','Shin v3',(#336));
#333=APPLICATION_PROTOCOL_DEFINITION('international standard',
'ap242_managed_model_based_3d_engineering',2011,#334);
#334=APPLICATION_CONTEXT('Managed model based 3d engineering');
#335=PRODUCT_CONTEXT('part definition',#334,'mechanical');
#336=PRODUCT('Shin','Shin v3',$,(#335));
#337=PRESENTATION_STYLE_ASSIGNMENT((#338));
#338=SURFACE_STYLE_USAGE(.BOTH.,#339);
#339=SURFACE_SIDE_STYLE('',(#340));
#340=SURFACE_STYLE_FILL_AREA(#341);
#341=FILL_AREA_STYLE('Stal \X2\2014\X0\ satynowa',(#342));
#342=FILL_AREA_STYLE_COLOUR('Stal \X2\2014\X0\ satynowa',#343);
#343=COLOUR_RGB('Stal \X2\2014\X0\ satynowa',0.627450980392157,0.627450980392157,
0.627450980392157);
ENDSEC;
END-ISO-10303-21;
