ISO-10303-21;
HEADER;
/* Generated by software containing ST-Developer
 * from STEP Tools, Inc. (www.steptools.com) 
 */

FILE_DESCRIPTION(
/* description */ ('',
'CAx-IF Rec.Pracs.---Representation and Presentation of Product Manufa
cturing Information (PMI)---4.0---2014-10-13'),
/* implementation_level */ '2;1');

FILE_NAME(
/* name */ 'ski.step',
/* time_stamp */ '2025-03-30T13:27:32+02:00',
/* author */ (''),
/* organization */ (''),
/* preprocessor_version */ 'ST-DEVELOPER v20',
/* originating_system */ 'Autodesk Translation Framework v13.20.0.188',

/* authorisation */ '');

FILE_SCHEMA (('AUTOMOTIVE_DESIGN { 1 0 10303 214 3 1 1 }','INTEGRATED_CNC_SCHEMA',
'PROCESS_PLANNING_SCHEMA','AP242_MANAGED_MODEL_BASED_3D_ENGINEERING_MIM_LF { 1 0 10303 442 1 1 4 }'));
ENDSEC;

DATA;
#10=MECHANICAL_DESIGN_GEOMETRIC_PRESENTATION_REPRESENTATION('',(#13),#455);
#11=SHAPE_REPRESENTATION_RELATIONSHIP('SRR','None',#462,#12);
#12=ADVANCED_BREP_SHAPE_REPRESENTATION('',(#14),#454);
#13=STYLED_ITEM('',(#471),#14);
#14=MANIFOLD_SOLID_BREP('Bry\X2\0142\X0\a1',#267);
#15=CYLINDRICAL_SURFACE('',#286,10.);
#16=CYLINDRICAL_SURFACE('',#289,10.);
#17=CYLINDRICAL_SURFACE('',#294,10.);
#18=CYLINDRICAL_SURFACE('',#297,10.);
#19=FACE_OUTER_BOUND('',#33,.T.);
#20=FACE_OUTER_BOUND('',#34,.T.);
#21=FACE_OUTER_BOUND('',#35,.T.);
#22=FACE_OUTER_BOUND('',#36,.T.);
#23=FACE_OUTER_BOUND('',#37,.T.);
#24=FACE_OUTER_BOUND('',#38,.T.);
#25=FACE_OUTER_BOUND('',#39,.T.);
#26=FACE_OUTER_BOUND('',#40,.T.);
#27=FACE_OUTER_BOUND('',#41,.T.);
#28=FACE_OUTER_BOUND('',#42,.T.);
#29=FACE_OUTER_BOUND('',#43,.T.);
#30=FACE_OUTER_BOUND('',#44,.T.);
#31=FACE_OUTER_BOUND('',#45,.T.);
#32=FACE_OUTER_BOUND('',#46,.T.);
#33=EDGE_LOOP('',(#171,#172,#173,#174));
#34=EDGE_LOOP('',(#175,#176,#177,#178));
#35=EDGE_LOOP('',(#179,#180,#181,#182));
#36=EDGE_LOOP('',(#183,#184,#185,#186));
#37=EDGE_LOOP('',(#187,#188,#189,#190));
#38=EDGE_LOOP('',(#191,#192,#193,#194,#195,#196,#197,#198,#199,#200,#201,
#202));
#39=EDGE_LOOP('',(#203,#204,#205,#206));
#40=EDGE_LOOP('',(#207,#208,#209,#210));
#41=EDGE_LOOP('',(#211,#212,#213,#214));
#42=EDGE_LOOP('',(#215,#216,#217,#218));
#43=EDGE_LOOP('',(#219,#220,#221,#222));
#44=EDGE_LOOP('',(#223,#224,#225,#226));
#45=EDGE_LOOP('',(#227,#228,#229,#230));
#46=EDGE_LOOP('',(#231,#232,#233,#234,#235,#236,#237,#238,#239,#240,#241,
#242));
#47=LINE('',#383,#75);
#48=LINE('',#385,#76);
#49=LINE('',#386,#77);
#50=LINE('',#392,#78);
#51=LINE('',#395,#79);
#52=LINE('',#398,#80);
#53=LINE('',#401,#81);
#54=LINE('',#404,#82);
#55=LINE('',#406,#83);
#56=LINE('',#407,#84);
#57=LINE('',#412,#85);
#58=LINE('',#413,#86);
#59=LINE('',#415,#87);
#60=LINE('',#417,#88);
#61=LINE('',#419,#89);
#62=LINE('',#421,#90);
#63=LINE('',#423,#91);
#64=LINE('',#425,#92);
#65=LINE('',#426,#93);
#66=LINE('',#431,#94);
#67=LINE('',#432,#95);
#68=LINE('',#434,#96);
#69=LINE('',#437,#97);
#70=LINE('',#441,#98);
#71=LINE('',#445,#99);
#72=LINE('',#446,#100);
#73=LINE('',#448,#101);
#74=LINE('',#450,#102);
#75=VECTOR('',#309,10.);
#76=VECTOR('',#310,10.);
#77=VECTOR('',#311,10.);
#78=VECTOR('',#316,10.);
#79=VECTOR('',#319,10.);
#80=VECTOR('',#322,10.);
#81=VECTOR('',#325,10.);
#82=VECTOR('',#328,10.);
#83=VECTOR('',#329,10.);
#84=VECTOR('',#330,10.);
#85=VECTOR('',#335,10.);
#86=VECTOR('',#336,10.);
#87=VECTOR('',#339,10.);
#88=VECTOR('',#340,10.);
#89=VECTOR('',#341,10.);
#90=VECTOR('',#342,10.);
#91=VECTOR('',#343,10.);
#92=VECTOR('',#344,10.);
#93=VECTOR('',#345,10.);
#94=VECTOR('',#350,10.);
#95=VECTOR('',#351,10.);
#96=VECTOR('',#354,10.);
#97=VECTOR('',#357,10.);
#98=VECTOR('',#362,10.);
#99=VECTOR('',#367,10.);
#100=VECTOR('',#368,10.);
#101=VECTOR('',#371,10.);
#102=VECTOR('',#374,10.);
#103=CIRCLE('',#282,10.);
#104=CIRCLE('',#284,10.);
#105=CIRCLE('',#285,10.);
#106=CIRCLE('',#287,10.);
#107=CIRCLE('',#290,10.);
#108=CIRCLE('',#293,10.);
#109=CIRCLE('',#296,10.);
#110=CIRCLE('',#298,10.);
#111=VERTEX_POINT('',#379);
#112=VERTEX_POINT('',#380);
#113=VERTEX_POINT('',#382);
#114=VERTEX_POINT('',#384);
#115=VERTEX_POINT('',#388);
#116=VERTEX_POINT('',#389);
#117=VERTEX_POINT('',#391);
#118=VERTEX_POINT('',#393);
#119=VERTEX_POINT('',#397);
#120=VERTEX_POINT('',#399);
#121=VERTEX_POINT('',#403);
#122=VERTEX_POINT('',#405);
#123=VERTEX_POINT('',#409);
#124=VERTEX_POINT('',#410);
#125=VERTEX_POINT('',#416);
#126=VERTEX_POINT('',#418);
#127=VERTEX_POINT('',#420);
#128=VERTEX_POINT('',#422);
#129=VERTEX_POINT('',#424);
#130=VERTEX_POINT('',#428);
#131=VERTEX_POINT('',#430);
#132=VERTEX_POINT('',#436);
#133=VERTEX_POINT('',#440);
#134=VERTEX_POINT('',#444);
#135=EDGE_CURVE('',#111,#112,#103,.T.);
#136=EDGE_CURVE('',#113,#111,#47,.T.);
#137=EDGE_CURVE('',#114,#113,#48,.T.);
#138=EDGE_CURVE('',#114,#112,#49,.T.);
#139=EDGE_CURVE('',#115,#116,#104,.T.);
#140=EDGE_CURVE('',#117,#115,#50,.T.);
#141=EDGE_CURVE('',#118,#117,#105,.T.);
#142=EDGE_CURVE('',#116,#118,#51,.T.);
#143=EDGE_CURVE('',#116,#119,#52,.T.);
#144=EDGE_CURVE('',#119,#120,#106,.T.);
#145=EDGE_CURVE('',#120,#115,#53,.T.);
#146=EDGE_CURVE('',#119,#121,#54,.T.);
#147=EDGE_CURVE('',#121,#122,#55,.T.);
#148=EDGE_CURVE('',#120,#122,#56,.T.);
#149=EDGE_CURVE('',#123,#124,#107,.T.);
#150=EDGE_CURVE('',#124,#111,#57,.T.);
#151=EDGE_CURVE('',#112,#123,#58,.T.);
#152=EDGE_CURVE('',#122,#113,#59,.T.);
#153=EDGE_CURVE('',#124,#125,#60,.T.);
#154=EDGE_CURVE('',#126,#125,#61,.T.);
#155=EDGE_CURVE('',#126,#127,#62,.T.);
#156=EDGE_CURVE('',#127,#128,#63,.T.);
#157=EDGE_CURVE('',#128,#129,#64,.T.);
#158=EDGE_CURVE('',#117,#129,#65,.T.);
#159=EDGE_CURVE('',#129,#130,#108,.T.);
#160=EDGE_CURVE('',#131,#128,#66,.T.);
#161=EDGE_CURVE('',#130,#131,#67,.T.);
#162=EDGE_CURVE('',#130,#118,#68,.T.);
#163=EDGE_CURVE('',#132,#123,#69,.T.);
#164=EDGE_CURVE('',#125,#132,#109,.T.);
#165=EDGE_CURVE('',#132,#133,#70,.T.);
#166=EDGE_CURVE('',#133,#126,#110,.T.);
#167=EDGE_CURVE('',#134,#133,#71,.T.);
#168=EDGE_CURVE('',#134,#127,#72,.T.);
#169=EDGE_CURVE('',#131,#134,#73,.T.);
#170=EDGE_CURVE('',#121,#114,#74,.T.);
#171=ORIENTED_EDGE('',*,*,#135,.F.);
#172=ORIENTED_EDGE('',*,*,#136,.F.);
#173=ORIENTED_EDGE('',*,*,#137,.F.);
#174=ORIENTED_EDGE('',*,*,#138,.T.);
#175=ORIENTED_EDGE('',*,*,#139,.F.);
#176=ORIENTED_EDGE('',*,*,#140,.F.);
#177=ORIENTED_EDGE('',*,*,#141,.F.);
#178=ORIENTED_EDGE('',*,*,#142,.F.);
#179=ORIENTED_EDGE('',*,*,#139,.T.);
#180=ORIENTED_EDGE('',*,*,#143,.T.);
#181=ORIENTED_EDGE('',*,*,#144,.T.);
#182=ORIENTED_EDGE('',*,*,#145,.T.);
#183=ORIENTED_EDGE('',*,*,#144,.F.);
#184=ORIENTED_EDGE('',*,*,#146,.T.);
#185=ORIENTED_EDGE('',*,*,#147,.T.);
#186=ORIENTED_EDGE('',*,*,#148,.F.);
#187=ORIENTED_EDGE('',*,*,#149,.T.);
#188=ORIENTED_EDGE('',*,*,#150,.T.);
#189=ORIENTED_EDGE('',*,*,#135,.T.);
#190=ORIENTED_EDGE('',*,*,#151,.T.);
#191=ORIENTED_EDGE('',*,*,#145,.F.);
#192=ORIENTED_EDGE('',*,*,#148,.T.);
#193=ORIENTED_EDGE('',*,*,#152,.T.);
#194=ORIENTED_EDGE('',*,*,#136,.T.);
#195=ORIENTED_EDGE('',*,*,#150,.F.);
#196=ORIENTED_EDGE('',*,*,#153,.T.);
#197=ORIENTED_EDGE('',*,*,#154,.F.);
#198=ORIENTED_EDGE('',*,*,#155,.T.);
#199=ORIENTED_EDGE('',*,*,#156,.T.);
#200=ORIENTED_EDGE('',*,*,#157,.T.);
#201=ORIENTED_EDGE('',*,*,#158,.F.);
#202=ORIENTED_EDGE('',*,*,#140,.T.);
#203=ORIENTED_EDGE('',*,*,#159,.F.);
#204=ORIENTED_EDGE('',*,*,#157,.F.);
#205=ORIENTED_EDGE('',*,*,#160,.F.);
#206=ORIENTED_EDGE('',*,*,#161,.F.);
#207=ORIENTED_EDGE('',*,*,#141,.T.);
#208=ORIENTED_EDGE('',*,*,#158,.T.);
#209=ORIENTED_EDGE('',*,*,#159,.T.);
#210=ORIENTED_EDGE('',*,*,#162,.T.);
#211=ORIENTED_EDGE('',*,*,#149,.F.);
#212=ORIENTED_EDGE('',*,*,#163,.F.);
#213=ORIENTED_EDGE('',*,*,#164,.F.);
#214=ORIENTED_EDGE('',*,*,#153,.F.);
#215=ORIENTED_EDGE('',*,*,#164,.T.);
#216=ORIENTED_EDGE('',*,*,#165,.T.);
#217=ORIENTED_EDGE('',*,*,#166,.T.);
#218=ORIENTED_EDGE('',*,*,#154,.T.);
#219=ORIENTED_EDGE('',*,*,#166,.F.);
#220=ORIENTED_EDGE('',*,*,#167,.F.);
#221=ORIENTED_EDGE('',*,*,#168,.T.);
#222=ORIENTED_EDGE('',*,*,#155,.F.);
#223=ORIENTED_EDGE('',*,*,#169,.F.);
#224=ORIENTED_EDGE('',*,*,#160,.T.);
#225=ORIENTED_EDGE('',*,*,#156,.F.);
#226=ORIENTED_EDGE('',*,*,#168,.F.);
#227=ORIENTED_EDGE('',*,*,#170,.T.);
#228=ORIENTED_EDGE('',*,*,#137,.T.);
#229=ORIENTED_EDGE('',*,*,#152,.F.);
#230=ORIENTED_EDGE('',*,*,#147,.F.);
#231=ORIENTED_EDGE('',*,*,#151,.F.);
#232=ORIENTED_EDGE('',*,*,#138,.F.);
#233=ORIENTED_EDGE('',*,*,#170,.F.);
#234=ORIENTED_EDGE('',*,*,#146,.F.);
#235=ORIENTED_EDGE('',*,*,#143,.F.);
#236=ORIENTED_EDGE('',*,*,#142,.T.);
#237=ORIENTED_EDGE('',*,*,#162,.F.);
#238=ORIENTED_EDGE('',*,*,#161,.T.);
#239=ORIENTED_EDGE('',*,*,#169,.T.);
#240=ORIENTED_EDGE('',*,*,#167,.T.);
#241=ORIENTED_EDGE('',*,*,#165,.F.);
#242=ORIENTED_EDGE('',*,*,#163,.T.);
#243=PLANE('',#281);
#244=PLANE('',#283);
#245=PLANE('',#288);
#246=PLANE('',#291);
#247=PLANE('',#292);
#248=PLANE('',#295);
#249=PLANE('',#299);
#250=PLANE('',#300);
#251=PLANE('',#301);
#252=PLANE('',#302);
#253=ADVANCED_FACE('',(#19),#243,.T.);
#254=ADVANCED_FACE('',(#20),#244,.T.);
#255=ADVANCED_FACE('',(#21),#15,.T.);
#256=ADVANCED_FACE('',(#22),#245,.T.);
#257=ADVANCED_FACE('',(#23),#16,.T.);
#258=ADVANCED_FACE('',(#24),#246,.T.);
#259=ADVANCED_FACE('',(#25),#247,.T.);
#260=ADVANCED_FACE('',(#26),#17,.T.);
#261=ADVANCED_FACE('',(#27),#248,.T.);
#262=ADVANCED_FACE('',(#28),#18,.T.);
#263=ADVANCED_FACE('',(#29),#249,.T.);
#264=ADVANCED_FACE('',(#30),#250,.T.);
#265=ADVANCED_FACE('',(#31),#251,.T.);
#266=ADVANCED_FACE('',(#32),#252,.F.);
#267=CLOSED_SHELL('',(#253,#254,#255,#256,#257,#258,#259,#260,#261,#262,
#263,#264,#265,#266));
#268=DERIVED_UNIT_ELEMENT(#270,1.);
#269=DERIVED_UNIT_ELEMENT(#457,-3.);
#270=(
MASS_UNIT()
NAMED_UNIT(*)
SI_UNIT(.KILO.,.GRAM.)
);
#271=DERIVED_UNIT((#268,#269));
#272=MEASURE_REPRESENTATION_ITEM('density measure',
POSITIVE_RATIO_MEASURE(7850.),#271);
#273=PROPERTY_DEFINITION_REPRESENTATION(#278,#275);
#274=PROPERTY_DEFINITION_REPRESENTATION(#279,#276);
#275=REPRESENTATION('material name',(#277),#454);
#276=REPRESENTATION('density',(#272),#454);
#277=DESCRIPTIVE_REPRESENTATION_ITEM('Stal','Stal');
#278=PROPERTY_DEFINITION('material property','material name',#464);
#279=PROPERTY_DEFINITION('material property','density of part',#464);
#280=AXIS2_PLACEMENT_3D('',#377,#303,#304);
#281=AXIS2_PLACEMENT_3D('',#378,#305,#306);
#282=AXIS2_PLACEMENT_3D('',#381,#307,#308);
#283=AXIS2_PLACEMENT_3D('',#387,#312,#313);
#284=AXIS2_PLACEMENT_3D('',#390,#314,#315);
#285=AXIS2_PLACEMENT_3D('',#394,#317,#318);
#286=AXIS2_PLACEMENT_3D('',#396,#320,#321);
#287=AXIS2_PLACEMENT_3D('',#400,#323,#324);
#288=AXIS2_PLACEMENT_3D('',#402,#326,#327);
#289=AXIS2_PLACEMENT_3D('',#408,#331,#332);
#290=AXIS2_PLACEMENT_3D('',#411,#333,#334);
#291=AXIS2_PLACEMENT_3D('',#414,#337,#338);
#292=AXIS2_PLACEMENT_3D('',#427,#346,#347);
#293=AXIS2_PLACEMENT_3D('',#429,#348,#349);
#294=AXIS2_PLACEMENT_3D('',#433,#352,#353);
#295=AXIS2_PLACEMENT_3D('',#435,#355,#356);
#296=AXIS2_PLACEMENT_3D('',#438,#358,#359);
#297=AXIS2_PLACEMENT_3D('',#439,#360,#361);
#298=AXIS2_PLACEMENT_3D('',#442,#363,#364);
#299=AXIS2_PLACEMENT_3D('',#443,#365,#366);
#300=AXIS2_PLACEMENT_3D('',#447,#369,#370);
#301=AXIS2_PLACEMENT_3D('',#449,#372,#373);
#302=AXIS2_PLACEMENT_3D('',#451,#375,#376);
#303=DIRECTION('axis',(0.,0.,1.));
#304=DIRECTION('refdir',(1.,0.,0.));
#305=DIRECTION('center_axis',(1.,1.11022302462516E-16,0.));
#306=DIRECTION('ref_axis',(-1.11022302462516E-16,1.,0.));
#307=DIRECTION('center_axis',(-1.,-1.11022302462516E-16,0.));
#308=DIRECTION('ref_axis',(0.,0.707106781186547,0.707106781186547));
#309=DIRECTION('',(-1.11022302462516E-16,1.,0.));
#310=DIRECTION('',(0.,0.,1.));
#311=DIRECTION('',(-1.11022302462516E-16,1.,0.));
#312=DIRECTION('center_axis',(1.,3.1720657846433E-17,0.));
#313=DIRECTION('ref_axis',(-3.1720657846433E-17,1.,0.));
#314=DIRECTION('center_axis',(-1.,-3.1720657846433E-17,0.));
#315=DIRECTION('ref_axis',(0.,0.707106781186547,-0.707106781186547));
#316=DIRECTION('',(-3.1720657846433E-17,1.,0.));
#317=DIRECTION('center_axis',(-1.,-3.1720657846433E-17,0.));
#318=DIRECTION('ref_axis',(1.25607396694702E-15,-0.707106781186547,0.707106781186547));
#319=DIRECTION('',(3.1720657846433E-17,-1.,0.));
#320=DIRECTION('center_axis',(-1.,0.,0.));
#321=DIRECTION('ref_axis',(0.,0.707106781186547,0.707106781186547));
#322=DIRECTION('',(-1.,0.,0.));
#323=DIRECTION('center_axis',(1.,0.,0.));
#324=DIRECTION('ref_axis',(0.,0.707106781186547,0.707106781186547));
#325=DIRECTION('',(1.,0.,0.));
#326=DIRECTION('center_axis',(-1.,0.,0.));
#327=DIRECTION('ref_axis',(0.,-1.,0.));
#328=DIRECTION('',(0.,-1.,0.));
#329=DIRECTION('',(0.,0.,1.));
#330=DIRECTION('',(0.,-1.,0.));
#331=DIRECTION('center_axis',(-1.,0.,0.));
#332=DIRECTION('ref_axis',(0.,0.707106781186547,0.707106781186547));
#333=DIRECTION('center_axis',(1.,0.,0.));
#334=DIRECTION('ref_axis',(0.,0.707106781186547,0.707106781186547));
#335=DIRECTION('',(1.,0.,0.));
#336=DIRECTION('',(-1.,0.,0.));
#337=DIRECTION('center_axis',(0.,0.,1.));
#338=DIRECTION('ref_axis',(1.,0.,0.));
#339=DIRECTION('',(-1.,0.,0.));
#340=DIRECTION('',(0.,-1.,0.));
#341=DIRECTION('',(-1.,-1.1842378929335E-15,0.));
#342=DIRECTION('',(0.,1.,0.));
#343=DIRECTION('',(1.,0.,0.));
#344=DIRECTION('',(0.,-1.,0.));
#345=DIRECTION('',(-1.,-1.1842378929335E-15,0.));
#346=DIRECTION('center_axis',(-1.,0.,0.));
#347=DIRECTION('ref_axis',(0.,-1.,0.));
#348=DIRECTION('center_axis',(1.,0.,0.));
#349=DIRECTION('ref_axis',(1.25607396694702E-15,-0.707106781186547,0.707106781186547));
#350=DIRECTION('',(0.,0.,1.));
#351=DIRECTION('',(0.,1.,0.));
#352=DIRECTION('center_axis',(1.,1.1842378929335E-15,0.));
#353=DIRECTION('ref_axis',(1.25607396694702E-15,-0.707106781186547,0.707106781186547));
#354=DIRECTION('',(1.,1.1842378929335E-15,0.));
#355=DIRECTION('center_axis',(-1.,0.,0.));
#356=DIRECTION('ref_axis',(0.,-1.,0.));
#357=DIRECTION('',(0.,1.,0.));
#358=DIRECTION('center_axis',(1.,0.,0.));
#359=DIRECTION('ref_axis',(1.25607396694702E-15,-0.707106781186547,-0.707106781186547));
#360=DIRECTION('center_axis',(1.,1.1842378929335E-15,0.));
#361=DIRECTION('ref_axis',(1.25607396694702E-15,-0.707106781186547,0.707106781186547));
#362=DIRECTION('',(1.,1.1842378929335E-15,0.));
#363=DIRECTION('center_axis',(-1.,0.,0.));
#364=DIRECTION('ref_axis',(1.25607396694702E-15,-0.707106781186547,0.707106781186547));
#365=DIRECTION('center_axis',(1.,0.,0.));
#366=DIRECTION('ref_axis',(0.,1.,0.));
#367=DIRECTION('',(0.,-1.,0.));
#368=DIRECTION('',(0.,0.,1.));
#369=DIRECTION('center_axis',(0.,-1.,0.));
#370=DIRECTION('ref_axis',(1.,0.,0.));
#371=DIRECTION('',(-1.,0.,0.));
#372=DIRECTION('center_axis',(0.,1.,0.));
#373=DIRECTION('ref_axis',(-1.,0.,0.));
#374=DIRECTION('',(-1.,0.,0.));
#375=DIRECTION('center_axis',(0.,0.,1.));
#376=DIRECTION('ref_axis',(1.,0.,0.));
#377=CARTESIAN_POINT('',(0.,0.,0.));
#378=CARTESIAN_POINT('Origin',(31.0655458780788,40.,0.));
#379=CARTESIAN_POINT('',(31.0655458780788,70.,20.));
#380=CARTESIAN_POINT('',(31.0655458780788,70.,0.));
#381=CARTESIAN_POINT('Origin',(31.0655458780788,70.,10.));
#382=CARTESIAN_POINT('',(31.0655458780788,40.,20.));
#383=CARTESIAN_POINT('',(31.0655458780788,40.,20.));
#384=CARTESIAN_POINT('',(31.0655458780788,40.,0.));
#385=CARTESIAN_POINT('',(31.0655458780788,40.,0.));
#386=CARTESIAN_POINT('',(31.0655458780788,40.,0.));
#387=CARTESIAN_POINT('Origin',(71.0655458780788,-480.,0.));
#388=CARTESIAN_POINT('',(71.0655458780788,70.,20.));
#389=CARTESIAN_POINT('',(71.0655458780788,70.,0.));
#390=CARTESIAN_POINT('Origin',(71.0655458780788,70.,10.));
#391=CARTESIAN_POINT('',(71.0655458780788,-470.,20.));
#392=CARTESIAN_POINT('',(71.0655458780788,80.,20.));
#393=CARTESIAN_POINT('',(71.0655458780788,-470.,0.));
#394=CARTESIAN_POINT('Origin',(71.0655458780788,-470.,10.));
#395=CARTESIAN_POINT('',(71.0655458780788,80.,0.));
#396=CARTESIAN_POINT('Origin',(56.0655458780788,70.,10.));
#397=CARTESIAN_POINT('',(51.0655458780788,70.,0.));
#398=CARTESIAN_POINT('',(56.0655458780788,70.,0.));
#399=CARTESIAN_POINT('',(51.0655458780788,70.,20.));
#400=CARTESIAN_POINT('Origin',(51.0655458780788,70.,10.));
#401=CARTESIAN_POINT('',(56.0655458780788,70.,20.));
#402=CARTESIAN_POINT('Origin',(51.0655458780788,80.,0.));
#403=CARTESIAN_POINT('',(51.0655458780788,40.,0.));
#404=CARTESIAN_POINT('',(51.0655458780788,80.,0.));
#405=CARTESIAN_POINT('',(51.0655458780788,40.,20.));
#406=CARTESIAN_POINT('',(51.0655458780788,40.,0.));
#407=CARTESIAN_POINT('',(51.0655458780788,80.,20.));
#408=CARTESIAN_POINT('Origin',(36.0655458780788,70.,10.));
#409=CARTESIAN_POINT('',(11.0655458780788,70.,0.));
#410=CARTESIAN_POINT('',(11.0655458780788,70.,20.));
#411=CARTESIAN_POINT('Origin',(11.0655458780788,70.,10.));
#412=CARTESIAN_POINT('',(36.0655458780788,70.,20.));
#413=CARTESIAN_POINT('',(36.0655458780788,70.,0.));
#414=CARTESIAN_POINT('Origin',(41.0655458780788,-200.,20.));
#415=CARTESIAN_POINT('',(51.0655458780788,40.,20.));
#416=CARTESIAN_POINT('',(11.0655458780788,-470.,20.));
#417=CARTESIAN_POINT('',(11.0655458780788,-480.,20.));
#418=CARTESIAN_POINT('',(31.0655458780788,-470.,20.));
#419=CARTESIAN_POINT('',(26.065545878079,-470.,20.));
#420=CARTESIAN_POINT('',(31.0655458780788,-440.,20.));
#421=CARTESIAN_POINT('',(31.0655458780788,-440.,20.));
#422=CARTESIAN_POINT('',(51.0655458780788,-440.,20.));
#423=CARTESIAN_POINT('',(51.0655458780788,-440.,20.));
#424=CARTESIAN_POINT('',(51.0655458780788,-470.,20.));
#425=CARTESIAN_POINT('',(51.0655458780788,-480.,20.));
#426=CARTESIAN_POINT('',(46.065545878079,-470.,20.));
#427=CARTESIAN_POINT('Origin',(51.0655458780788,-440.,0.));
#428=CARTESIAN_POINT('',(51.0655458780788,-470.,0.));
#429=CARTESIAN_POINT('Origin',(51.0655458780788,-470.,10.));
#430=CARTESIAN_POINT('',(51.0655458780788,-440.,0.));
#431=CARTESIAN_POINT('',(51.0655458780788,-440.,0.));
#432=CARTESIAN_POINT('',(51.0655458780788,-480.,0.));
#433=CARTESIAN_POINT('Origin',(46.065545878079,-470.,10.));
#434=CARTESIAN_POINT('',(46.065545878079,-470.,0.));
#435=CARTESIAN_POINT('Origin',(11.0655458780788,80.,0.));
#436=CARTESIAN_POINT('',(11.0655458780788,-470.,0.));
#437=CARTESIAN_POINT('',(11.0655458780788,-480.,0.));
#438=CARTESIAN_POINT('Origin',(11.0655458780794,-470.,10.));
#439=CARTESIAN_POINT('Origin',(26.065545878079,-470.,10.));
#440=CARTESIAN_POINT('',(31.0655458780788,-470.,0.));
#441=CARTESIAN_POINT('',(26.065545878079,-470.,0.));
#442=CARTESIAN_POINT('Origin',(31.0655458780788,-470.,10.));
#443=CARTESIAN_POINT('Origin',(31.0655458780788,-480.,0.));
#444=CARTESIAN_POINT('',(31.0655458780788,-440.,0.));
#445=CARTESIAN_POINT('',(31.0655458780788,-440.,0.));
#446=CARTESIAN_POINT('',(31.0655458780788,-440.,0.));
#447=CARTESIAN_POINT('Origin',(31.0655458780788,-440.,0.));
#448=CARTESIAN_POINT('',(51.0655458780788,-440.,0.));
#449=CARTESIAN_POINT('Origin',(51.0655458780788,40.,0.));
#450=CARTESIAN_POINT('',(51.0655458780788,40.,0.));
#451=CARTESIAN_POINT('Origin',(41.0655458780788,-200.,0.));
#452=UNCERTAINTY_MEASURE_WITH_UNIT(LENGTH_MEASURE(0.01),#456,
'DISTANCE_ACCURACY_VALUE',
'Maximum model space distance between geometric entities at asserted c
onnectivities');
#453=UNCERTAINTY_MEASURE_WITH_UNIT(LENGTH_MEASURE(0.01),#456,
'DISTANCE_ACCURACY_VALUE',
'Maximum model space distance between geometric entities at asserted c
onnectivities');
#454=(
GEOMETRIC_REPRESENTATION_CONTEXT(3)
GLOBAL_UNCERTAINTY_ASSIGNED_CONTEXT((#452))
GLOBAL_UNIT_ASSIGNED_CONTEXT((#456,#458,#459))
REPRESENTATION_CONTEXT('','3D')
);
#455=(
GEOMETRIC_REPRESENTATION_CONTEXT(3)
GLOBAL_UNCERTAINTY_ASSIGNED_CONTEXT((#453))
GLOBAL_UNIT_ASSIGNED_CONTEXT((#456,#458,#459))
REPRESENTATION_CONTEXT('','3D')
);
#456=(
LENGTH_UNIT()
NAMED_UNIT(*)
SI_UNIT(.MILLI.,.METRE.)
);
#457=(
LENGTH_UNIT()
NAMED_UNIT(*)
SI_UNIT($,.METRE.)
);
#458=(
NAMED_UNIT(*)
PLANE_ANGLE_UNIT()
SI_UNIT($,.RADIAN.)
);
#459=(
NAMED_UNIT(*)
SI_UNIT($,.STERADIAN.)
SOLID_ANGLE_UNIT()
);
#460=SHAPE_DEFINITION_REPRESENTATION(#461,#462);
#461=PRODUCT_DEFINITION_SHAPE('',$,#464);
#462=SHAPE_REPRESENTATION('',(#280),#454);
#463=PRODUCT_DEFINITION_CONTEXT('part definition',#468,'design');
#464=PRODUCT_DEFINITION('Ski','Ski v5',#465,#463);
#465=PRODUCT_DEFINITION_FORMATION('',$,#470);
#466=PRODUCT_RELATED_PRODUCT_CATEGORY('Ski v5','Ski v5',(#470));
#467=APPLICATION_PROTOCOL_DEFINITION('international standard',
'ap242_managed_model_based_3d_engineering',2011,#468);
#468=APPLICATION_CONTEXT('Managed model based 3d engineering');
#469=PRODUCT_CONTEXT('part definition',#468,'mechanical');
#470=PRODUCT('Ski','Ski v5',$,(#469));
#471=PRESENTATION_STYLE_ASSIGNMENT((#472));
#472=SURFACE_STYLE_USAGE(.BOTH.,#473);
#473=SURFACE_SIDE_STYLE('',(#474));
#474=SURFACE_STYLE_FILL_AREA(#475);
#475=FILL_AREA_STYLE('Stal \X2\2014\X0\ satynowa',(#476));
#476=FILL_AREA_STYLE_COLOUR('Stal \X2\2014\X0\ satynowa',#477);
#477=COLOUR_RGB('Stal \X2\2014\X0\ satynowa',0.627450980392157,0.627450980392157,
0.627450980392157);
ENDSEC;
END-ISO-10303-21;
