ISO-10303-21;
HEADER;
/* Generated by software containing ST-Developer
 * from STEP Tools, Inc. (www.steptools.com) 
 */

FILE_DESCRIPTION(
/* description */ ('',
'CAx-IF Rec.Pracs.---Representation and Presentation of Product Manufa
cturing Information (PMI)---4.0---2014-10-13'),
/* implementation_level */ '2;1');

FILE_NAME(
/* name */ 'thigh.step',
/* time_stamp */ '2025-03-30T12:17:33+02:00',
/* author */ (''),
/* organization */ (''),
/* preprocessor_version */ 'ST-DEVELOPER v20',
/* originating_system */ 'Autodesk Translation Framework v13.20.0.188',

/* authorisation */ '');

FILE_SCHEMA (('AP242_MANAGED_MODEL_BASED_3D_ENGINEERING_MIM_LF { 1 0 10303 442 1 1 4 }'));
ENDSEC;

DATA;
#10=MECHANICAL_DESIGN_GEOMETRIC_PRESENTATION_REPRESENTATION('',(#13),#287);
#11=SHAPE_REPRESENTATION_RELATIONSHIP('SRR','None',#294,#12);
#12=ADVANCED_BREP_SHAPE_REPRESENTATION('',(#14),#286);
#13=STYLED_ITEM('',(#303),#14);
#14=MANIFOLD_SOLID_BREP('Bry\X2\0142\X0\a1',#159);
#15=CYLINDRICAL_SURFACE('',#181,50.);
#16=CYLINDRICAL_SURFACE('',#186,50.);
#17=CIRCLE('',#176,50.);
#18=CIRCLE('',#177,50.);
#19=CIRCLE('',#179,50.);
#20=CIRCLE('',#180,50.);
#21=CIRCLE('',#182,50.);
#22=CIRCLE('',#183,50.);
#23=CIRCLE('',#187,50.);
#24=CIRCLE('',#188,50.);
#25=FACE_OUTER_BOUND('',#35,.T.);
#26=FACE_OUTER_BOUND('',#36,.T.);
#27=FACE_OUTER_BOUND('',#37,.T.);
#28=FACE_OUTER_BOUND('',#38,.T.);
#29=FACE_OUTER_BOUND('',#39,.T.);
#30=FACE_OUTER_BOUND('',#40,.T.);
#31=FACE_OUTER_BOUND('',#41,.T.);
#32=FACE_OUTER_BOUND('',#42,.T.);
#33=FACE_OUTER_BOUND('',#43,.T.);
#34=FACE_OUTER_BOUND('',#44,.T.);
#35=EDGE_LOOP('',(#101,#102,#103,#104));
#36=EDGE_LOOP('',(#105,#106,#107,#108));
#37=EDGE_LOOP('',(#109,#110,#111,#112));
#38=EDGE_LOOP('',(#113,#114,#115,#116));
#39=EDGE_LOOP('',(#117,#118,#119,#120,#121,#122,#123,#124,#125,#126));
#40=EDGE_LOOP('',(#127));
#41=EDGE_LOOP('',(#128));
#42=EDGE_LOOP('',(#129,#130,#131,#132,#133,#134,#135,#136,#137,#138));
#43=EDGE_LOOP('',(#139));
#44=EDGE_LOOP('',(#140));
#45=LINE('',#245,#57);
#46=LINE('',#247,#58);
#47=LINE('',#249,#59);
#48=LINE('',#250,#60);
#49=LINE('',#254,#61);
#50=LINE('',#256,#62);
#51=LINE('',#258,#63);
#52=LINE('',#259,#64);
#53=LINE('',#269,#65);
#54=LINE('',#271,#66);
#55=LINE('',#278,#67);
#56=LINE('',#280,#68);
#57=VECTOR('',#195,10.);
#58=VECTOR('',#196,10.);
#59=VECTOR('',#197,10.);
#60=VECTOR('',#198,10.);
#61=VECTOR('',#201,10.);
#62=VECTOR('',#202,10.);
#63=VECTOR('',#203,10.);
#64=VECTOR('',#204,10.);
#65=VECTOR('',#221,50.);
#66=VECTOR('',#222,50.);
#67=VECTOR('',#233,50.);
#68=VECTOR('',#234,50.);
#69=VERTEX_POINT('',#243);
#70=VERTEX_POINT('',#244);
#71=VERTEX_POINT('',#246);
#72=VERTEX_POINT('',#248);
#73=VERTEX_POINT('',#252);
#74=VERTEX_POINT('',#253);
#75=VERTEX_POINT('',#255);
#76=VERTEX_POINT('',#257);
#77=VERTEX_POINT('',#267);
#78=VERTEX_POINT('',#270);
#79=VERTEX_POINT('',#276);
#80=VERTEX_POINT('',#279);
#81=EDGE_CURVE('',#69,#70,#45,.T.);
#82=EDGE_CURVE('',#69,#71,#46,.T.);
#83=EDGE_CURVE('',#72,#71,#47,.T.);
#84=EDGE_CURVE('',#70,#72,#48,.T.);
#85=EDGE_CURVE('',#73,#74,#49,.T.);
#86=EDGE_CURVE('',#73,#75,#50,.T.);
#87=EDGE_CURVE('',#76,#75,#51,.T.);
#88=EDGE_CURVE('',#74,#76,#52,.T.);
#89=EDGE_CURVE('',#76,#71,#17,.T.);
#90=EDGE_CURVE('',#72,#75,#18,.T.);
#91=EDGE_CURVE('',#69,#74,#19,.T.);
#92=EDGE_CURVE('',#73,#70,#20,.T.);
#93=EDGE_CURVE('',#77,#77,#21,.T.);
#94=EDGE_CURVE('',#77,#71,#53,.T.);
#95=EDGE_CURVE('',#69,#78,#54,.T.);
#96=EDGE_CURVE('',#78,#78,#22,.T.);
#97=EDGE_CURVE('',#79,#79,#23,.T.);
#98=EDGE_CURVE('',#79,#72,#55,.T.);
#99=EDGE_CURVE('',#70,#80,#56,.T.);
#100=EDGE_CURVE('',#80,#80,#24,.T.);
#101=ORIENTED_EDGE('',*,*,#81,.F.);
#102=ORIENTED_EDGE('',*,*,#82,.T.);
#103=ORIENTED_EDGE('',*,*,#83,.F.);
#104=ORIENTED_EDGE('',*,*,#84,.F.);
#105=ORIENTED_EDGE('',*,*,#85,.F.);
#106=ORIENTED_EDGE('',*,*,#86,.T.);
#107=ORIENTED_EDGE('',*,*,#87,.F.);
#108=ORIENTED_EDGE('',*,*,#88,.F.);
#109=ORIENTED_EDGE('',*,*,#89,.F.);
#110=ORIENTED_EDGE('',*,*,#87,.T.);
#111=ORIENTED_EDGE('',*,*,#90,.F.);
#112=ORIENTED_EDGE('',*,*,#83,.T.);
#113=ORIENTED_EDGE('',*,*,#91,.F.);
#114=ORIENTED_EDGE('',*,*,#81,.T.);
#115=ORIENTED_EDGE('',*,*,#92,.F.);
#116=ORIENTED_EDGE('',*,*,#85,.T.);
#117=ORIENTED_EDGE('',*,*,#93,.F.);
#118=ORIENTED_EDGE('',*,*,#94,.T.);
#119=ORIENTED_EDGE('',*,*,#82,.F.);
#120=ORIENTED_EDGE('',*,*,#95,.T.);
#121=ORIENTED_EDGE('',*,*,#96,.T.);
#122=ORIENTED_EDGE('',*,*,#95,.F.);
#123=ORIENTED_EDGE('',*,*,#91,.T.);
#124=ORIENTED_EDGE('',*,*,#88,.T.);
#125=ORIENTED_EDGE('',*,*,#89,.T.);
#126=ORIENTED_EDGE('',*,*,#94,.F.);
#127=ORIENTED_EDGE('',*,*,#93,.T.);
#128=ORIENTED_EDGE('',*,*,#96,.F.);
#129=ORIENTED_EDGE('',*,*,#97,.F.);
#130=ORIENTED_EDGE('',*,*,#98,.T.);
#131=ORIENTED_EDGE('',*,*,#90,.T.);
#132=ORIENTED_EDGE('',*,*,#86,.F.);
#133=ORIENTED_EDGE('',*,*,#92,.T.);
#134=ORIENTED_EDGE('',*,*,#99,.T.);
#135=ORIENTED_EDGE('',*,*,#100,.T.);
#136=ORIENTED_EDGE('',*,*,#99,.F.);
#137=ORIENTED_EDGE('',*,*,#84,.T.);
#138=ORIENTED_EDGE('',*,*,#98,.F.);
#139=ORIENTED_EDGE('',*,*,#97,.T.);
#140=ORIENTED_EDGE('',*,*,#100,.F.);
#141=PLANE('',#173);
#142=PLANE('',#174);
#143=PLANE('',#175);
#144=PLANE('',#178);
#145=PLANE('',#184);
#146=PLANE('',#185);
#147=PLANE('',#189);
#148=PLANE('',#190);
#149=ADVANCED_FACE('',(#25),#141,.T.);
#150=ADVANCED_FACE('',(#26),#142,.T.);
#151=ADVANCED_FACE('',(#27),#143,.T.);
#152=ADVANCED_FACE('',(#28),#144,.F.);
#153=ADVANCED_FACE('',(#29),#15,.T.);
#154=ADVANCED_FACE('',(#30),#145,.T.);
#155=ADVANCED_FACE('',(#31),#146,.F.);
#156=ADVANCED_FACE('',(#32),#16,.T.);
#157=ADVANCED_FACE('',(#33),#147,.T.);
#158=ADVANCED_FACE('',(#34),#148,.F.);
#159=CLOSED_SHELL('',(#149,#150,#151,#152,#153,#154,#155,#156,#157,#158));
#160=DERIVED_UNIT_ELEMENT(#162,1.);
#161=DERIVED_UNIT_ELEMENT(#289,-3.);
#162=(
MASS_UNIT()
NAMED_UNIT(*)
SI_UNIT(.KILO.,.GRAM.)
);
#163=DERIVED_UNIT((#160,#161));
#164=MEASURE_REPRESENTATION_ITEM('density measure',
POSITIVE_RATIO_MEASURE(7850.),#163);
#165=PROPERTY_DEFINITION_REPRESENTATION(#170,#167);
#166=PROPERTY_DEFINITION_REPRESENTATION(#171,#168);
#167=REPRESENTATION('material name',(#169),#286);
#168=REPRESENTATION('density',(#164),#286);
#169=DESCRIPTIVE_REPRESENTATION_ITEM('Stal','Stal');
#170=PROPERTY_DEFINITION('material property','material name',#296);
#171=PROPERTY_DEFINITION('material property','density of part',#296);
#172=AXIS2_PLACEMENT_3D('',#241,#191,#192);
#173=AXIS2_PLACEMENT_3D('',#242,#193,#194);
#174=AXIS2_PLACEMENT_3D('',#251,#199,#200);
#175=AXIS2_PLACEMENT_3D('',#260,#205,#206);
#176=AXIS2_PLACEMENT_3D('',#261,#207,#208);
#177=AXIS2_PLACEMENT_3D('',#262,#209,#210);
#178=AXIS2_PLACEMENT_3D('',#263,#211,#212);
#179=AXIS2_PLACEMENT_3D('',#264,#213,#214);
#180=AXIS2_PLACEMENT_3D('',#265,#215,#216);
#181=AXIS2_PLACEMENT_3D('',#266,#217,#218);
#182=AXIS2_PLACEMENT_3D('',#268,#219,#220);
#183=AXIS2_PLACEMENT_3D('',#272,#223,#224);
#184=AXIS2_PLACEMENT_3D('',#273,#225,#226);
#185=AXIS2_PLACEMENT_3D('',#274,#227,#228);
#186=AXIS2_PLACEMENT_3D('',#275,#229,#230);
#187=AXIS2_PLACEMENT_3D('',#277,#231,#232);
#188=AXIS2_PLACEMENT_3D('',#281,#235,#236);
#189=AXIS2_PLACEMENT_3D('',#282,#237,#238);
#190=AXIS2_PLACEMENT_3D('',#283,#239,#240);
#191=DIRECTION('axis',(0.,0.,1.));
#192=DIRECTION('refdir',(1.,0.,0.));
#193=DIRECTION('center_axis',(-1.,0.,0.));
#194=DIRECTION('ref_axis',(0.,-1.,0.));
#195=DIRECTION('',(0.,1.,0.));
#196=DIRECTION('',(0.,0.,1.));
#197=DIRECTION('',(0.,-1.,0.));
#198=DIRECTION('',(0.,0.,1.));
#199=DIRECTION('center_axis',(1.,0.,0.));
#200=DIRECTION('ref_axis',(0.,1.,0.));
#201=DIRECTION('',(0.,-1.,0.));
#202=DIRECTION('',(0.,0.,1.));
#203=DIRECTION('',(0.,1.,0.));
#204=DIRECTION('',(0.,0.,1.));
#205=DIRECTION('center_axis',(0.,0.,1.));
#206=DIRECTION('ref_axis',(1.,0.,0.));
#207=DIRECTION('center_axis',(0.,0.,1.));
#208=DIRECTION('ref_axis',(1.,0.,0.));
#209=DIRECTION('center_axis',(0.,0.,1.));
#210=DIRECTION('ref_axis',(1.,0.,0.));
#211=DIRECTION('center_axis',(0.,0.,1.));
#212=DIRECTION('ref_axis',(1.,0.,0.));
#213=DIRECTION('center_axis',(0.,0.,-1.));
#214=DIRECTION('ref_axis',(1.,0.,0.));
#215=DIRECTION('center_axis',(0.,0.,-1.));
#216=DIRECTION('ref_axis',(1.,0.,0.));
#217=DIRECTION('center_axis',(0.,0.,1.));
#218=DIRECTION('ref_axis',(1.,0.,0.));
#219=DIRECTION('center_axis',(0.,0.,1.));
#220=DIRECTION('ref_axis',(1.,0.,0.));
#221=DIRECTION('',(0.,0.,-1.));
#222=DIRECTION('',(0.,0.,-1.));
#223=DIRECTION('center_axis',(0.,0.,1.));
#224=DIRECTION('ref_axis',(1.,0.,0.));
#225=DIRECTION('center_axis',(0.,0.,1.));
#226=DIRECTION('ref_axis',(1.,0.,0.));
#227=DIRECTION('center_axis',(0.,0.,1.));
#228=DIRECTION('ref_axis',(1.,0.,0.));
#229=DIRECTION('center_axis',(0.,0.,1.));
#230=DIRECTION('ref_axis',(1.,0.,0.));
#231=DIRECTION('center_axis',(0.,0.,1.));
#232=DIRECTION('ref_axis',(1.,0.,0.));
#233=DIRECTION('',(0.,0.,-1.));
#234=DIRECTION('',(0.,0.,-1.));
#235=DIRECTION('center_axis',(0.,0.,1.));
#236=DIRECTION('ref_axis',(1.,0.,0.));
#237=DIRECTION('center_axis',(0.,0.,1.));
#238=DIRECTION('ref_axis',(1.,0.,0.));
#239=DIRECTION('center_axis',(0.,0.,1.));
#240=DIRECTION('ref_axis',(1.,0.,0.));
#241=CARTESIAN_POINT('',(0.,0.,0.));
#242=CARTESIAN_POINT('Origin',(-27.1476918124417,71.9175581196688,5.));
#243=CARTESIAN_POINT('',(-27.1476918124417,-228.082441880331,5.));
#244=CARTESIAN_POINT('',(-27.1476918124417,71.9175581196688,5.));
#245=CARTESIAN_POINT('',(-27.1476918124417,-228.082441880331,5.));
#246=CARTESIAN_POINT('',(-27.1476918124417,-228.082441880331,35.));
#247=CARTESIAN_POINT('',(-27.1476918124417,-228.082441880331,0.));
#248=CARTESIAN_POINT('',(-27.1476918124417,71.9175581196688,35.));
#249=CARTESIAN_POINT('',(-27.1476918124417,-228.082441880331,35.));
#250=CARTESIAN_POINT('',(-27.1476918124417,71.9175581196688,0.));
#251=CARTESIAN_POINT('Origin',(72.8523081875583,-228.082441880331,5.));
#252=CARTESIAN_POINT('',(72.8523081875583,71.9175581196688,5.));
#253=CARTESIAN_POINT('',(72.8523081875583,-228.082441880331,5.));
#254=CARTESIAN_POINT('',(72.8523081875583,71.9175581196688,5.));
#255=CARTESIAN_POINT('',(72.8523081875583,71.9175581196688,35.));
#256=CARTESIAN_POINT('',(72.8523081875583,71.9175581196688,0.));
#257=CARTESIAN_POINT('',(72.8523081875583,-228.082441880331,35.));
#258=CARTESIAN_POINT('',(72.8523081875583,71.9175581196688,35.));
#259=CARTESIAN_POINT('',(72.8523081875583,-228.082441880331,0.));
#260=CARTESIAN_POINT('Origin',(22.8523081875583,-78.0824418803312,35.));
#261=CARTESIAN_POINT('Origin',(22.8523081875583,-228.082441880331,35.));
#262=CARTESIAN_POINT('Origin',(22.8523081875583,71.9175581196688,35.));
#263=CARTESIAN_POINT('Origin',(22.8523081875583,-78.0824418803312,5.));
#264=CARTESIAN_POINT('Origin',(22.8523081875583,-228.082441880331,5.));
#265=CARTESIAN_POINT('Origin',(22.8523081875583,71.9175581196688,5.));
#266=CARTESIAN_POINT('Origin',(22.8523081875583,-228.082441880331,0.));
#267=CARTESIAN_POINT('',(-27.1476918124417,-228.082441880331,40.));
#268=CARTESIAN_POINT('Origin',(22.8523081875583,-228.082441880331,40.));
#269=CARTESIAN_POINT('',(-27.1476918124417,-228.082441880331,0.));
#270=CARTESIAN_POINT('',(-27.1476918124417,-228.082441880331,0.));
#271=CARTESIAN_POINT('',(-27.1476918124417,-228.082441880331,0.));
#272=CARTESIAN_POINT('Origin',(22.8523081875583,-228.082441880331,0.));
#273=CARTESIAN_POINT('Origin',(22.8523081875583,-228.082441880331,40.));
#274=CARTESIAN_POINT('Origin',(22.8523081875583,-228.082441880331,0.));
#275=CARTESIAN_POINT('Origin',(22.8523081875583,71.9175581196688,0.));
#276=CARTESIAN_POINT('',(-27.1476918124417,71.9175581196688,40.));
#277=CARTESIAN_POINT('Origin',(22.8523081875583,71.9175581196688,40.));
#278=CARTESIAN_POINT('',(-27.1476918124417,71.9175581196688,0.));
#279=CARTESIAN_POINT('',(-27.1476918124417,71.9175581196688,0.));
#280=CARTESIAN_POINT('',(-27.1476918124417,71.9175581196688,0.));
#281=CARTESIAN_POINT('Origin',(22.8523081875583,71.9175581196688,0.));
#282=CARTESIAN_POINT('Origin',(22.8523081875583,71.9175581196688,40.));
#283=CARTESIAN_POINT('Origin',(22.8523081875583,71.9175581196688,0.));
#284=UNCERTAINTY_MEASURE_WITH_UNIT(LENGTH_MEASURE(0.01),#288,
'DISTANCE_ACCURACY_VALUE',
'Maximum model space distance between geometric entities at asserted c
onnectivities');
#285=UNCERTAINTY_MEASURE_WITH_UNIT(LENGTH_MEASURE(0.01),#288,
'DISTANCE_ACCURACY_VALUE',
'Maximum model space distance between geometric entities at asserted c
onnectivities');
#286=(
GEOMETRIC_REPRESENTATION_CONTEXT(3)
GLOBAL_UNCERTAINTY_ASSIGNED_CONTEXT((#284))
GLOBAL_UNIT_ASSIGNED_CONTEXT((#288,#290,#291))
REPRESENTATION_CONTEXT('','3D')
);
#287=(
GEOMETRIC_REPRESENTATION_CONTEXT(3)
GLOBAL_UNCERTAINTY_ASSIGNED_CONTEXT((#285))
GLOBAL_UNIT_ASSIGNED_CONTEXT((#288,#290,#291))
REPRESENTATION_CONTEXT('','3D')
);
#288=(
LENGTH_UNIT()
NAMED_UNIT(*)
SI_UNIT(.MILLI.,.METRE.)
);
#289=(
LENGTH_UNIT()
NAMED_UNIT(*)
SI_UNIT($,.METRE.)
);
#290=(
NAMED_UNIT(*)
PLANE_ANGLE_UNIT()
SI_UNIT($,.RADIAN.)
);
#291=(
NAMED_UNIT(*)
SI_UNIT($,.STERADIAN.)
SOLID_ANGLE_UNIT()
);
#292=SHAPE_DEFINITION_REPRESENTATION(#293,#294);
#293=PRODUCT_DEFINITION_SHAPE('',$,#296);
#294=SHAPE_REPRESENTATION('',(#172),#286);
#295=PRODUCT_DEFINITION_CONTEXT('part definition',#300,'design');
#296=PRODUCT_DEFINITION('Thigh','Thigh v2',#297,#295);
#297=PRODUCT_DEFINITION_FORMATION('',$,#302);
#298=PRODUCT_RELATED_PRODUCT_CATEGORY('Thigh v2','Thigh v2',(#302));
#299=APPLICATION_PROTOCOL_DEFINITION('international standard',
'ap242_managed_model_based_3d_engineering',2011,#300);
#300=APPLICATION_CONTEXT('Managed model based 3d engineering');
#301=PRODUCT_CONTEXT('part definition',#300,'mechanical');
#302=PRODUCT('Thigh','Thigh v2',$,(#301));
#303=PRESENTATION_STYLE_ASSIGNMENT((#304));
#304=SURFACE_STYLE_USAGE(.BOTH.,#305);
#305=SURFACE_SIDE_STYLE('',(#306));
#306=SURFACE_STYLE_FILL_AREA(#307);
#307=FILL_AREA_STYLE('Stal \X2\2014\X0\ satynowa',(#308));
#308=FILL_AREA_STYLE_COLOUR('Stal \X2\2014\X0\ satynowa',#309);
#309=COLOUR_RGB('Stal \X2\2014\X0\ satynowa',0.627450980392157,0.627450980392157,
0.627450980392157);
ENDSEC;
END-ISO-10303-21;
