ISO-10303-21;
HEADER;
/* Generated by software containing ST-Developer
 * from STEP Tools, Inc. (www.steptools.com) 
 */

FILE_DESCRIPTION(
/* description */ ('',
'CAx-IF Rec.Pracs.---Representation and Presentation of Product Manufa
cturing Information (PMI)---4.0---2014-10-13'),
/* implementation_level */ '2;1');

FILE_NAME(
/* name */ 'wheel.step',
/* time_stamp */ '2025-03-30T12:59:17+02:00',
/* author */ (''),
/* organization */ (''),
/* preprocessor_version */ 'ST-DEVELOPER v20',
/* originating_system */ 'Autodesk Translation Framework v13.20.0.188',

/* authorisation */ '');

FILE_SCHEMA (('AP242_MANAGED_MODEL_BASED_3D_ENGINEERING_MIM_LF { 1 0 10303 442 1 1 4 }'));
ENDSEC;

DATA;
#10=MECHANICAL_DESIGN_GEOMETRIC_PRESENTATION_REPRESENTATION('',(#13),#177);
#11=SHAPE_REPRESENTATION_RELATIONSHIP('SRR','None',#184,#12);
#12=ADVANCED_BREP_SHAPE_REPRESENTATION('',(#14),#176);
#13=STYLED_ITEM('',(#193),#14);
#14=MANIFOLD_SOLID_BREP('Bry\X2\0142\X0\a1',#91);
#15=FACE_BOUND('',#34,.T.);
#16=FACE_BOUND('',#37,.T.);
#17=PLANE('',#111);
#18=PLANE('',#116);
#19=LINE('',#161,#21);
#20=LINE('',#173,#22);
#21=VECTOR('',#133,25.);
#22=VECTOR('',#150,10.);
#23=CYLINDRICAL_SURFACE('',#109,25.);
#24=CYLINDRICAL_SURFACE('',#118,10.);
#25=FACE_OUTER_BOUND('',#31,.T.);
#26=FACE_OUTER_BOUND('',#32,.T.);
#27=FACE_OUTER_BOUND('',#33,.T.);
#28=FACE_OUTER_BOUND('',#35,.T.);
#29=FACE_OUTER_BOUND('',#36,.T.);
#30=FACE_OUTER_BOUND('',#38,.T.);
#31=EDGE_LOOP('',(#63,#64,#65,#66));
#32=EDGE_LOOP('',(#67,#68,#69,#70));
#33=EDGE_LOOP('',(#71));
#34=EDGE_LOOP('',(#72));
#35=EDGE_LOOP('',(#73,#74,#75,#76));
#36=EDGE_LOOP('',(#77));
#37=EDGE_LOOP('',(#78));
#38=EDGE_LOOP('',(#79,#80,#81,#82));
#39=CIRCLE('',#106,25.);
#40=CIRCLE('',#107,8.);
#41=CIRCLE('',#108,17.);
#42=CIRCLE('',#110,25.);
#43=CIRCLE('',#112,10.);
#44=CIRCLE('',#114,17.);
#45=CIRCLE('',#115,8.);
#46=CIRCLE('',#117,10.);
#47=VERTEX_POINT('',#153);
#48=VERTEX_POINT('',#155);
#49=VERTEX_POINT('',#159);
#50=VERTEX_POINT('',#163);
#51=VERTEX_POINT('',#166);
#52=VERTEX_POINT('',#170);
#53=EDGE_CURVE('',#47,#47,#39,.T.);
#54=EDGE_CURVE('',#47,#48,#40,.T.);
#55=EDGE_CURVE('',#48,#48,#41,.T.);
#56=EDGE_CURVE('',#49,#49,#42,.T.);
#57=EDGE_CURVE('',#49,#47,#19,.T.);
#58=EDGE_CURVE('',#50,#50,#43,.T.);
#59=EDGE_CURVE('',#51,#51,#44,.T.);
#60=EDGE_CURVE('',#51,#49,#45,.T.);
#61=EDGE_CURVE('',#52,#52,#46,.T.);
#62=EDGE_CURVE('',#52,#50,#20,.T.);
#63=ORIENTED_EDGE('',*,*,#53,.T.);
#64=ORIENTED_EDGE('',*,*,#54,.T.);
#65=ORIENTED_EDGE('',*,*,#55,.T.);
#66=ORIENTED_EDGE('',*,*,#54,.F.);
#67=ORIENTED_EDGE('',*,*,#56,.F.);
#68=ORIENTED_EDGE('',*,*,#57,.T.);
#69=ORIENTED_EDGE('',*,*,#53,.F.);
#70=ORIENTED_EDGE('',*,*,#57,.F.);
#71=ORIENTED_EDGE('',*,*,#55,.F.);
#72=ORIENTED_EDGE('',*,*,#58,.F.);
#73=ORIENTED_EDGE('',*,*,#59,.T.);
#74=ORIENTED_EDGE('',*,*,#60,.T.);
#75=ORIENTED_EDGE('',*,*,#56,.T.);
#76=ORIENTED_EDGE('',*,*,#60,.F.);
#77=ORIENTED_EDGE('',*,*,#59,.F.);
#78=ORIENTED_EDGE('',*,*,#61,.T.);
#79=ORIENTED_EDGE('',*,*,#61,.F.);
#80=ORIENTED_EDGE('',*,*,#62,.T.);
#81=ORIENTED_EDGE('',*,*,#58,.T.);
#82=ORIENTED_EDGE('',*,*,#62,.F.);
#83=TOROIDAL_SURFACE('',#105,17.,8.);
#84=TOROIDAL_SURFACE('',#113,17.,8.);
#85=ADVANCED_FACE('',(#25),#83,.T.);
#86=ADVANCED_FACE('',(#26),#23,.T.);
#87=ADVANCED_FACE('',(#27,#15),#17,.F.);
#88=ADVANCED_FACE('',(#28),#84,.T.);
#89=ADVANCED_FACE('',(#29,#16),#18,.T.);
#90=ADVANCED_FACE('',(#30),#24,.F.);
#91=CLOSED_SHELL('',(#85,#86,#87,#88,#89,#90));
#92=DERIVED_UNIT_ELEMENT(#94,1.);
#93=DERIVED_UNIT_ELEMENT(#179,-3.);
#94=(
MASS_UNIT()
NAMED_UNIT(*)
SI_UNIT(.KILO.,.GRAM.)
);
#95=DERIVED_UNIT((#92,#93));
#96=MEASURE_REPRESENTATION_ITEM('density measure',
POSITIVE_RATIO_MEASURE(7850.),#95);
#97=PROPERTY_DEFINITION_REPRESENTATION(#102,#99);
#98=PROPERTY_DEFINITION_REPRESENTATION(#103,#100);
#99=REPRESENTATION('material name',(#101),#176);
#100=REPRESENTATION('density',(#96),#176);
#101=DESCRIPTIVE_REPRESENTATION_ITEM('Stal','Stal');
#102=PROPERTY_DEFINITION('material property','material name',#186);
#103=PROPERTY_DEFINITION('material property','density of part',#186);
#104=AXIS2_PLACEMENT_3D('',#151,#119,#120);
#105=AXIS2_PLACEMENT_3D('',#152,#121,#122);
#106=AXIS2_PLACEMENT_3D('',#154,#123,#124);
#107=AXIS2_PLACEMENT_3D('',#156,#125,#126);
#108=AXIS2_PLACEMENT_3D('',#157,#127,#128);
#109=AXIS2_PLACEMENT_3D('',#158,#129,#130);
#110=AXIS2_PLACEMENT_3D('',#160,#131,#132);
#111=AXIS2_PLACEMENT_3D('',#162,#134,#135);
#112=AXIS2_PLACEMENT_3D('',#164,#136,#137);
#113=AXIS2_PLACEMENT_3D('',#165,#138,#139);
#114=AXIS2_PLACEMENT_3D('',#167,#140,#141);
#115=AXIS2_PLACEMENT_3D('',#168,#142,#143);
#116=AXIS2_PLACEMENT_3D('',#169,#144,#145);
#117=AXIS2_PLACEMENT_3D('',#171,#146,#147);
#118=AXIS2_PLACEMENT_3D('',#172,#148,#149);
#119=DIRECTION('axis',(0.,0.,1.));
#120=DIRECTION('refdir',(1.,0.,0.));
#121=DIRECTION('center_axis',(0.,0.,1.));
#122=DIRECTION('ref_axis',(1.,0.,0.));
#123=DIRECTION('center_axis',(0.,0.,-1.));
#124=DIRECTION('ref_axis',(1.,0.,0.));
#125=DIRECTION('center_axis',(8.88178419700126E-17,-1.,0.));
#126=DIRECTION('ref_axis',(-1.,-8.88178419700126E-17,0.));
#127=DIRECTION('center_axis',(0.,0.,1.));
#128=DIRECTION('ref_axis',(1.,0.,0.));
#129=DIRECTION('center_axis',(0.,0.,1.));
#130=DIRECTION('ref_axis',(1.,0.,0.));
#131=DIRECTION('center_axis',(0.,0.,1.));
#132=DIRECTION('ref_axis',(1.,0.,0.));
#133=DIRECTION('',(0.,0.,-1.));
#134=DIRECTION('center_axis',(0.,0.,1.));
#135=DIRECTION('ref_axis',(1.,0.,0.));
#136=DIRECTION('center_axis',(0.,0.,-1.));
#137=DIRECTION('ref_axis',(1.,0.,0.));
#138=DIRECTION('center_axis',(0.,0.,1.));
#139=DIRECTION('ref_axis',(1.,0.,0.));
#140=DIRECTION('center_axis',(0.,0.,-1.));
#141=DIRECTION('ref_axis',(1.,0.,0.));
#142=DIRECTION('center_axis',(8.88178419700126E-17,-1.,0.));
#143=DIRECTION('ref_axis',(-1.,-8.88178419700126E-17,0.));
#144=DIRECTION('center_axis',(0.,0.,1.));
#145=DIRECTION('ref_axis',(1.,0.,0.));
#146=DIRECTION('center_axis',(0.,0.,-1.));
#147=DIRECTION('ref_axis',(1.,0.,0.));
#148=DIRECTION('center_axis',(0.,0.,1.));
#149=DIRECTION('ref_axis',(1.,0.,0.));
#150=DIRECTION('',(0.,0.,-1.));
#151=CARTESIAN_POINT('',(0.,0.,0.));
#152=CARTESIAN_POINT('Origin',(12.9944497537096,13.4425342279755,8.));
#153=CARTESIAN_POINT('',(-12.0055502462904,13.4425342279755,8.));
#154=CARTESIAN_POINT('Origin',(12.9944497537096,13.4425342279755,8.));
#155=CARTESIAN_POINT('',(-4.00555024629037,13.4425342279755,0.));
#156=CARTESIAN_POINT('Origin',(-4.00555024629037,13.4425342279755,8.));
#157=CARTESIAN_POINT('Origin',(12.9944497537096,13.4425342279755,0.));
#158=CARTESIAN_POINT('Origin',(12.9944497537096,13.4425342279755,0.));
#159=CARTESIAN_POINT('',(-12.0055502462904,13.4425342279755,12.));
#160=CARTESIAN_POINT('Origin',(12.9944497537096,13.4425342279755,12.));
#161=CARTESIAN_POINT('',(-12.0055502462904,13.4425342279755,0.));
#162=CARTESIAN_POINT('Origin',(12.9944497537096,13.4425342279755,0.));
#163=CARTESIAN_POINT('',(2.99444975370962,13.4425342279755,0.));
#164=CARTESIAN_POINT('Origin',(12.9944497537096,13.4425342279755,0.));
#165=CARTESIAN_POINT('Origin',(12.9944497537096,13.4425342279755,12.));
#166=CARTESIAN_POINT('',(-4.00555024629037,13.4425342279755,20.));
#167=CARTESIAN_POINT('Origin',(12.9944497537096,13.4425342279755,20.));
#168=CARTESIAN_POINT('Origin',(-4.00555024629037,13.4425342279755,12.));
#169=CARTESIAN_POINT('Origin',(12.9944497537096,13.4425342279755,20.));
#170=CARTESIAN_POINT('',(2.99444975370962,13.4425342279755,20.));
#171=CARTESIAN_POINT('Origin',(12.9944497537096,13.4425342279755,20.));
#172=CARTESIAN_POINT('Origin',(12.9944497537096,13.4425342279755,0.));
#173=CARTESIAN_POINT('',(2.99444975370962,13.4425342279755,0.));
#174=UNCERTAINTY_MEASURE_WITH_UNIT(LENGTH_MEASURE(0.01),#178,
'DISTANCE_ACCURACY_VALUE',
'Maximum model space distance between geometric entities at asserted c
onnectivities');
#175=UNCERTAINTY_MEASURE_WITH_UNIT(LENGTH_MEASURE(0.01),#178,
'DISTANCE_ACCURACY_VALUE',
'Maximum model space distance between geometric entities at asserted c
onnectivities');
#176=(
GEOMETRIC_REPRESENTATION_CONTEXT(3)
GLOBAL_UNCERTAINTY_ASSIGNED_CONTEXT((#174))
GLOBAL_UNIT_ASSIGNED_CONTEXT((#178,#180,#181))
REPRESENTATION_CONTEXT('','3D')
);
#177=(
GEOMETRIC_REPRESENTATION_CONTEXT(3)
GLOBAL_UNCERTAINTY_ASSIGNED_CONTEXT((#175))
GLOBAL_UNIT_ASSIGNED_CONTEXT((#178,#180,#181))
REPRESENTATION_CONTEXT('','3D')
);
#178=(
LENGTH_UNIT()
NAMED_UNIT(*)
SI_UNIT(.MILLI.,.METRE.)
);
#179=(
LENGTH_UNIT()
NAMED_UNIT(*)
SI_UNIT($,.METRE.)
);
#180=(
NAMED_UNIT(*)
PLANE_ANGLE_UNIT()
SI_UNIT($,.RADIAN.)
);
#181=(
NAMED_UNIT(*)
SI_UNIT($,.STERADIAN.)
SOLID_ANGLE_UNIT()
);
#182=SHAPE_DEFINITION_REPRESENTATION(#183,#184);
#183=PRODUCT_DEFINITION_SHAPE('',$,#186);
#184=SHAPE_REPRESENTATION('',(#104),#176);
#185=PRODUCT_DEFINITION_CONTEXT('part definition',#190,'design');
#186=PRODUCT_DEFINITION('Wheel','Wheel v1',#187,#185);
#187=PRODUCT_DEFINITION_FORMATION('',$,#192);
#188=PRODUCT_RELATED_PRODUCT_CATEGORY('Wheel v1','Wheel v1',(#192));
#189=APPLICATION_PROTOCOL_DEFINITION('international standard',
'ap242_managed_model_based_3d_engineering',2011,#190);
#190=APPLICATION_CONTEXT('Managed model based 3d engineering');
#191=PRODUCT_CONTEXT('part definition',#190,'mechanical');
#192=PRODUCT('Wheel','Wheel v1',$,(#191));
#193=PRESENTATION_STYLE_ASSIGNMENT((#194));
#194=SURFACE_STYLE_USAGE(.BOTH.,#195);
#195=SURFACE_SIDE_STYLE('',(#196));
#196=SURFACE_STYLE_FILL_AREA(#197);
#197=FILL_AREA_STYLE('Stal \X2\2014\X0\ satynowa',(#198));
#198=FILL_AREA_STYLE_COLOUR('Stal \X2\2014\X0\ satynowa',#199);
#199=COLOUR_RGB('Stal \X2\2014\X0\ satynowa',0.627450980392157,0.627450980392157,
0.627450980392157);
ENDSEC;
END-ISO-10303-21;
